<svg xmlns="http://www.w3.org/2000/svg" xmlns:xlink="http://www.w3.org/1999/xlink" width="58.5" height="58.5" viewBox="0 0 58.5 58.5" fill="none"><path    stroke="rgba(80, 50, 143, 1)" stroke-width="5.5" stroke-linejoin="round" stroke-linecap="round"  d="M2.75 16L2.75 9.375C2.75 9.15803 2.76063 8.94159 2.7819 8.72565C2.80317 8.50971 2.83497 8.29532 2.8773 8.08253C2.91963 7.8697 2.97229 7.65949 3.03527 7.45186C3.09826 7.24423 3.17126 7.04018 3.25429 6.83971C3.33733 6.63927 3.42999 6.44337 3.53228 6.25201C3.63455 6.06063 3.74596 5.87475 3.86651 5.69435C3.98706 5.51395 4.11616 5.33988 4.25381 5.17213C4.39145 5.00441 4.53699 4.84384 4.69043 4.69043C4.84384 4.53699 5.00441 4.39145 5.17213 4.25381C5.33985 4.11616 5.51393 3.98706 5.69435 3.86651C5.87475 3.74596 6.06063 3.63455 6.25201 3.53228C6.44337 3.42999 6.63927 3.33733 6.83971 3.25429C7.04018 3.17126 7.24423 3.09826 7.45186 3.03527C7.65949 2.97229 7.8697 2.91963 8.08253 2.8773C8.29532 2.83497 8.50971 2.80317 8.72565 2.7819C8.94159 2.76063 9.15803 2.75 9.375 2.75L16 2.75M2.75 42.5L2.75 49.125C2.75 49.342 2.76063 49.5586 2.7819 49.7742C2.80317 49.9902 2.83497 50.2045 2.8773 50.4175C2.91963 50.6302 2.97229 50.8405 3.03527 51.0482C3.09826 51.2559 3.17126 51.46 3.25429 51.6604C3.33733 51.8608 3.42999 52.0566 3.53228 52.248C3.63455 52.4392 3.74596 52.625 3.86651 52.8055C3.98706 52.986 4.11616 53.16 4.25381 53.3279C4.39145 53.4955 4.53699 53.6562 4.69043 53.8095C4.84384 53.9629 5.00441 54.1087 5.17213 54.2461C5.33985 54.3839 5.51393 54.5131 5.69435 54.6334C5.87475 54.7539 6.06063 54.8652 6.25201 54.9676C6.44337 55.0699 6.63927 55.1627 6.83971 55.2458C7.04018 55.329 7.24423 55.4019 7.45186 55.4648C7.65949 55.5277 7.8697 55.5804 8.08253 55.6228C8.29532 55.6649 8.50971 55.6967 8.72565 55.7182C8.94159 55.7394 9.15803 55.75 9.375 55.75L16 55.75M42.5 2.75L49.125 2.75C49.342 2.75 49.5586 2.76063 49.7742 2.7819C49.9902 2.80317 50.2045 2.83497 50.4175 2.8773C50.6302 2.91963 50.8405 2.97229 51.0482 3.03527C51.2559 3.09826 51.46 3.17126 51.6604 3.25429C51.8608 3.33733 52.0566 3.42999 52.248 3.53228C52.4392 3.63455 52.625 3.74596 52.8055 3.86651C52.986 3.98706 53.16 4.11616 53.3279 4.25381C53.4955 4.39145 53.6562 4.53699 53.8095 4.69043C53.9629 4.84384 54.1087 5.00441 54.2461 5.17213C54.3839 5.33985 54.5131 5.51393 54.6334 5.69435C54.7539 5.87475 54.8652 6.06063 54.9676 6.25201C55.0699 6.44337 55.1627 6.63927 55.2458 6.83971C55.329 7.04018 55.4019 7.24423 55.4648 7.45186C55.5277 7.65949 55.5804 7.8697 55.6228 8.08253C55.6649 8.29532 55.6967 8.50971 55.7182 8.72565C55.7394 8.94159 55.75 9.15803 55.75 9.375L55.75 16M42.5 55.75L49.125 55.75C49.342 55.75 49.5586 55.7394 49.7742 55.7182C49.9902 55.6967 50.2045 55.6649 50.4175 55.6228C50.6302 55.5804 50.8405 55.5277 51.0482 55.4648C51.2559 55.4019 51.46 55.329 51.6604 55.2458C51.8608 55.1627 52.0566 55.0699 52.248 54.9676C52.4392 54.8652 52.625 54.7539 52.8055 54.6334C52.986 54.5131 53.16 54.3839 53.3279 54.2461C53.4955 54.1087 53.6562 53.9629 53.8095 53.8095C53.9629 53.6562 54.1087 53.4955 54.2461 53.3279C54.3839 53.16 54.5131 52.986 54.6334 52.8055C54.7539 52.625 54.8652 52.4392 54.9676 52.248C55.0699 52.0566 55.1627 51.8608 55.2458 51.6604C55.329 51.46 55.4019 51.2559 55.4648 51.0482C55.5277 50.8405 55.5804 50.6302 55.6228 50.4175C55.6649 50.2045 55.6967 49.9902 55.7182 49.7742C55.7394 49.5586 55.75 49.342 55.75 49.125L55.75 42.5M12.6875 29.25L45.8125 29.25"></path></svg>