<?xml version="1.0" encoding="UTF-8"?>
<svg xmlns="http://www.w3.org/2000/svg" xmlns:xlink="http://www.w3.org/1999/xlink" width="128px" height="128px" viewBox="0 0 128 128" version="1.1">
<defs>
<filter id="alpha" filterUnits="objectBoundingBox" x="0%" y="0%" width="100%" height="100%">
  <feColorMatrix type="matrix" in="SourceGraphic" values="0 0 0 0 1 0 0 0 0 1 0 0 0 0 1 0 0 0 1 0"/>
</filter>
<mask id="mask0">
  <g filter="url(#alpha)">
<rect x="0" y="0" width="128" height="128" style="fill:rgb(0%,0%,0%);fill-opacity:0.501961;stroke:none;"/>
  </g>
</mask>
<linearGradient id="linear0" gradientUnits="userSpaceOnUse" x1="235.273438" y1="115.25029" x2="356.308594" y2="115.25029" gradientTransform="matrix(0.295612,0,0,0.320802,0,0)">
<stop offset="0" style="stop-color:rgb(31.372549%,19.607843%,56.078431%);stop-opacity:1;"/>
<stop offset="0.42" style="stop-color:rgb(31.372549%,19.607843%,56.078431%);stop-opacity:0.988235;"/>
<stop offset="0.58" style="stop-color:rgb(31.372549%,19.607843%,56.078431%);stop-opacity:0.941176;"/>
<stop offset="0.65" style="stop-color:rgb(31.372549%,19.607843%,56.078431%);stop-opacity:0.890196;"/>
<stop offset="1" style="stop-color:rgb(31.372549%,19.607843%,56.078431%);stop-opacity:0.501961;"/>
</linearGradient>
<clipPath id="clip1">
  <rect x="0" y="0" width="128" height="128"/>
</clipPath>
<g id="surface5" clip-path="url(#clip1)">
<path style=" stroke:none;fill-rule:nonzero;fill:url(#linear0);" d="M 105.304688 12.882812 L 69.550781 47.230469 C 69.925781 47.34375 70.296875 47.46875 70.664062 47.605469 C 71.03125 47.746094 71.390625 47.894531 71.75 48.058594 C 72.105469 48.226562 72.460938 48.402344 72.804688 48.589844 C 73.152344 48.78125 73.492188 48.984375 73.828125 49.199219 C 74.164062 49.414062 74.488281 49.636719 74.808594 49.875 C 75.128906 50.113281 75.445312 50.363281 75.75 50.625 C 76.054688 50.886719 76.351562 51.15625 76.640625 51.4375 C 76.925781 51.722656 77.207031 52.011719 77.476562 52.316406 C 77.746094 52.617188 78.007812 52.929688 78.257812 53.25 C 78.511719 53.570312 78.753906 53.902344 78.984375 54.242188 C 79.214844 54.578125 79.433594 54.925781 79.644531 55.28125 C 79.855469 55.636719 80.050781 55.996094 80.238281 56.363281 C 80.425781 56.734375 80.601562 57.109375 80.765625 57.492188 C 80.929688 57.871094 81.082031 58.261719 81.222656 58.652344 C 81.363281 59.042969 81.492188 59.441406 81.609375 59.84375 C 81.726562 60.246094 81.828125 60.652344 81.921875 61.0625 L 100.597656 43.125 Z M 105.304688 12.882812 "/>
</g>
<linearGradient id="linear1" gradientUnits="userSpaceOnUse" x1="29.439941" y1="369.717072" x2="152.194824" y2="260.642395" gradientTransform="matrix(0.295612,0,0,0.320802,0,0)">
<stop offset="0" style="stop-color:rgb(31.372549%,19.607843%,56.078431%);stop-opacity:1;"/>
<stop offset="0.42" style="stop-color:rgb(31.372549%,19.607843%,56.078431%);stop-opacity:0.988235;"/>
<stop offset="0.58" style="stop-color:rgb(31.372549%,19.607843%,56.078431%);stop-opacity:0.941176;"/>
<stop offset="0.65" style="stop-color:rgb(31.372549%,19.607843%,56.078431%);stop-opacity:0.890196;"/>
<stop offset="1" style="stop-color:rgb(31.372549%,19.607843%,56.078431%);stop-opacity:0.501961;"/>
</linearGradient>
<linearGradient id="linear2" gradientUnits="userSpaceOnUse" x1="312.660645" y1="216.063507" x2="342.264282" y2="37.012589" gradientTransform="matrix(0.295612,0,0,0.320802,0,0)">
<stop offset="0" style="stop-color:rgb(31.372549%,19.607843%,56.078431%);stop-opacity:1;"/>
<stop offset="0.5" style="stop-color:rgb(31.372549%,19.607843%,56.078431%);stop-opacity:0.501961;"/>
</linearGradient>
</defs>
<g id="surface1">
<use xlink:href="#surface5" mask="url(#mask0)"/>
<path style=" stroke:none;fill-rule:nonzero;fill:url(#linear1);" d="M 27.257812 113.542969 L 58.945312 83.117188 C 58.582031 82.96875 58.222656 82.808594 57.867188 82.636719 C 57.515625 82.464844 57.164062 82.28125 56.824219 82.082031 C 56.480469 81.882812 56.144531 81.671875 55.8125 81.449219 C 55.484375 81.230469 55.160156 80.996094 54.84375 80.75 C 54.53125 80.503906 54.222656 80.246094 53.921875 79.976562 C 53.625 79.710938 53.332031 79.429688 53.050781 79.140625 C 52.765625 78.851562 52.492188 78.554688 52.230469 78.246094 C 51.964844 77.9375 51.710938 77.617188 51.46875 77.289062 C 51.222656 76.964844 50.988281 76.628906 50.765625 76.28125 C 50.542969 75.9375 50.328125 75.585938 50.128906 75.226562 C 49.925781 74.867188 49.734375 74.5 49.554688 74.125 C 49.375 73.753906 49.210938 73.375 49.054688 72.988281 C 48.898438 72.601562 48.753906 72.210938 48.621094 71.816406 C 48.492188 71.417969 48.371094 71.019531 48.265625 70.613281 C 48.15625 70.207031 48.0625 69.800781 47.980469 69.386719 C 47.898438 68.976562 47.832031 68.5625 47.773438 68.144531 L 2.988281 111.167969 C 2.285156 111.859375 1.691406 112.652344 1.210938 113.542969 Z M 27.257812 113.542969 "/>
<path style=" stroke:none;fill-rule:nonzero;fill:rgb(31.37255%,19.607843%,56.078434%);fill-opacity:1;" d="M 0 118.355469 C -0.00390625 118.648438 0.00390625 118.9375 0.0273438 119.226562 C 0.046875 119.519531 0.0820312 119.804688 0.125 120.09375 C 0.171875 120.378906 0.230469 120.664062 0.300781 120.941406 C 0.371094 121.222656 0.453125 121.5 0.546875 121.773438 C 0.636719 122.046875 0.742188 122.3125 0.859375 122.574219 C 0.976562 122.835938 1.101562 123.09375 1.242188 123.34375 C 1.378906 123.589844 1.527344 123.832031 1.6875 124.066406 C 1.84375 124.300781 2.011719 124.527344 2.191406 124.746094 C 2.289062 124.863281 2.386719 124.980469 2.488281 125.089844 C 2.589844 125.203125 2.691406 125.3125 2.800781 125.421875 C 2.90625 125.527344 3.015625 125.632812 3.125 125.734375 C 3.238281 125.832031 3.351562 125.933594 3.46875 126.027344 C 3.582031 126.121094 3.699219 126.214844 3.820312 126.304688 C 3.941406 126.390625 4.0625 126.476562 4.183594 126.558594 C 4.308594 126.644531 4.433594 126.722656 4.5625 126.796875 C 4.6875 126.871094 4.816406 126.945312 4.949219 127.015625 C 5.078125 127.082031 5.210938 127.148438 5.34375 127.210938 C 5.476562 127.273438 5.613281 127.332031 5.75 127.386719 C 5.886719 127.441406 6.023438 127.492188 6.160156 127.539062 C 6.300781 127.585938 6.4375 127.628906 6.578125 127.667969 C 6.71875 127.710938 6.859375 127.746094 7.003906 127.777344 C 7.144531 127.8125 7.289062 127.839844 7.429688 127.863281 C 7.574219 127.890625 7.71875 127.910156 7.863281 127.925781 C 8.007812 127.945312 8.152344 127.957031 8.296875 127.96875 C 8.441406 127.976562 8.585938 127.984375 8.730469 127.984375 C 8.878906 127.988281 9.023438 127.984375 9.167969 127.980469 C 9.3125 127.972656 9.457031 127.964844 9.601562 127.949219 C 9.746094 127.9375 9.890625 127.917969 10.035156 127.898438 C 10.179688 127.875 10.320312 127.851562 10.464844 127.824219 C 10.609375 127.792969 10.75 127.761719 10.890625 127.722656 C 11.03125 127.6875 11.171875 127.648438 11.3125 127.605469 C 11.453125 127.558594 11.589844 127.511719 11.726562 127.460938 C 11.863281 127.410156 12 127.355469 12.136719 127.296875 C 12.269531 127.238281 12.402344 127.175781 12.535156 127.109375 C 12.667969 127.046875 12.796875 126.976562 12.925781 126.902344 C 13.054688 126.832031 13.183594 126.757812 13.308594 126.675781 C 13.433594 126.597656 13.558594 126.515625 13.679688 126.429688 C 13.800781 126.34375 13.921875 126.253906 14.039062 126.164062 C 14.15625 126.070312 14.273438 125.976562 14.386719 125.875 C 14.5 125.777344 14.609375 125.675781 14.71875 125.574219 L 22.234375 118.355469 Z M 0 118.355469 "/>
<path style=" stroke:none;fill-rule:nonzero;fill:url(#linear2);" d="M 114.105469 101.785156 L 127.867188 14.105469 C 127.894531 13.949219 127.917969 13.789062 127.9375 13.632812 C 127.957031 13.476562 127.972656 13.316406 127.988281 13.160156 C 128 13 128.007812 12.839844 128.011719 12.683594 C 128.019531 12.523438 128.019531 12.363281 128.019531 12.207031 C 128.015625 12.046875 128.011719 11.886719 128 11.730469 C 127.992188 11.570312 127.980469 11.410156 127.964844 11.253906 C 127.945312 11.09375 127.925781 10.9375 127.902344 10.78125 C 127.878906 10.625 127.851562 10.46875 127.820312 10.3125 C 127.789062 10.15625 127.757812 10.003906 127.71875 9.847656 C 127.679688 9.695312 127.640625 9.542969 127.59375 9.390625 C 127.550781 9.238281 127.5 9.089844 127.449219 8.941406 C 127.398438 8.792969 127.34375 8.644531 127.285156 8.496094 C 127.226562 8.351562 127.164062 8.207031 127.097656 8.066406 C 127.035156 7.921875 126.964844 7.78125 126.894531 7.644531 C 126.824219 7.503906 126.75 7.367188 126.667969 7.230469 C 126.59375 7.097656 126.511719 6.964844 126.425781 6.832031 C 126.34375 6.703125 126.257812 6.574219 126.167969 6.449219 C 126.078125 6.324219 125.984375 6.199219 125.890625 6.078125 C 125.792969 5.957031 125.695312 5.839844 125.59375 5.722656 C 125.492188 5.609375 125.390625 5.496094 125.285156 5.386719 C 125.179688 5.277344 125.070312 5.167969 124.960938 5.066406 C 124.847656 4.960938 124.734375 4.859375 124.621094 4.761719 C 124.503906 4.664062 124.386719 4.566406 124.265625 4.476562 C 124.148438 4.382812 124.023438 4.296875 123.902344 4.210938 C 123.777344 4.125 123.652344 4.042969 123.523438 3.964844 C 123.394531 3.886719 123.265625 3.8125 123.136719 3.738281 C 123.003906 3.667969 122.871094 3.601562 122.738281 3.535156 C 122.605469 3.472656 122.46875 3.410156 122.332031 3.355469 C 122.195312 3.296875 122.054688 3.242188 121.917969 3.195312 C 121.777344 3.144531 121.636719 3.097656 121.496094 3.054688 C 121.351562 3.015625 121.210938 2.976562 121.066406 2.941406 C 120.925781 2.90625 120.78125 2.875 120.636719 2.847656 C 120.492188 2.824219 120.347656 2.800781 120.199219 2.78125 C 120.054688 2.761719 119.910156 2.746094 119.761719 2.734375 C 119.617188 2.726562 119.46875 2.71875 119.324219 2.714844 C 119.175781 2.710938 119.027344 2.710938 118.882812 2.71875 C 118.734375 2.722656 118.589844 2.730469 118.441406 2.742188 C 118.296875 2.757812 118.152344 2.773438 118.003906 2.792969 C 117.859375 2.8125 117.714844 2.835938 117.570312 2.867188 C 117.425781 2.894531 117.28125 2.925781 117.140625 2.960938 C 116.996094 3 116.855469 3.039062 116.710938 3.082031 C 116.570312 3.125 116.429688 3.171875 116.292969 3.222656 C 116.152344 3.273438 116.015625 3.332031 115.878906 3.390625 C 115.742188 3.449219 115.609375 3.507812 115.472656 3.574219 C 115.339844 3.640625 115.207031 3.710938 115.078125 3.785156 C 114.949219 3.855469 114.820312 3.933594 114.691406 4.011719 C 114.566406 4.09375 114.441406 4.175781 114.316406 4.261719 C 114.195312 4.347656 114.074219 4.4375 113.953125 4.53125 C 113.835938 4.625 113.71875 4.722656 113.605469 4.820312 C 113.488281 4.921875 113.378906 5.023438 113.265625 5.128906 C 113.15625 5.234375 113.050781 5.34375 112.945312 5.453125 C 112.839844 5.5625 112.738281 5.679688 112.636719 5.796875 C 112.539062 5.910156 112.441406 6.03125 112.347656 6.152344 C 112.253906 6.273438 112.160156 6.398438 112.074219 6.527344 C 111.984375 6.652344 111.898438 6.78125 111.816406 6.914062 C 111.734375 7.046875 111.652344 7.179688 111.578125 7.316406 C 111.5 7.449219 111.425781 7.589844 111.355469 7.726562 C 111.285156 7.867188 111.21875 8.007812 111.15625 8.152344 C 111.089844 8.296875 111.03125 8.441406 110.972656 8.585938 C 110.917969 8.734375 110.863281 8.882812 110.8125 9.03125 C 110.761719 9.179688 110.714844 9.332031 110.671875 9.484375 C 110.628906 9.636719 110.589844 9.789062 110.550781 9.941406 C 110.515625 10.097656 110.484375 10.25 110.453125 10.40625 C 110.425781 10.5625 110.398438 10.71875 110.375 10.875 L 97.304688 94.175781 L 81.824219 70.152344 C 81.761719 70.402344 81.699219 70.652344 81.628906 70.902344 C 81.558594 71.148438 81.488281 71.394531 81.40625 71.640625 C 81.328125 71.882812 81.246094 72.125 81.160156 72.367188 C 81.070312 72.609375 80.976562 72.847656 80.882812 73.082031 C 80.785156 73.320312 80.683594 73.554688 80.578125 73.785156 C 80.472656 74.019531 80.363281 74.25 80.246094 74.476562 C 80.132812 74.703125 80.015625 74.929688 79.890625 75.148438 C 79.769531 75.371094 79.640625 75.589844 79.511719 75.808594 C 79.378906 76.023438 79.242188 76.238281 79.105469 76.449219 C 78.964844 76.65625 78.820312 76.863281 78.675781 77.070312 C 78.527344 77.273438 78.375 77.472656 78.222656 77.671875 C 78.066406 77.867188 77.90625 78.0625 77.746094 78.25 C 77.582031 78.441406 77.417969 78.628906 77.246094 78.808594 C 77.078125 78.992188 76.90625 79.171875 76.730469 79.347656 C 76.554688 79.523438 76.375 79.691406 76.191406 79.859375 C 76.007812 80.027344 75.824219 80.1875 75.636719 80.347656 C 75.445312 80.507812 75.253906 80.660156 75.058594 80.8125 C 74.863281 80.960938 74.667969 81.105469 74.46875 81.25 C 74.269531 81.390625 74.066406 81.527344 73.859375 81.660156 C 73.65625 81.792969 73.445312 81.917969 73.238281 82.042969 C 73.027344 82.164062 72.8125 82.285156 72.597656 82.398438 C 72.382812 82.511719 72.167969 82.621094 71.949219 82.722656 C 71.730469 82.828125 71.507812 82.925781 71.285156 83.019531 C 71.0625 83.113281 70.839844 83.203125 70.613281 83.289062 C 70.386719 83.371094 70.160156 83.449219 69.933594 83.523438 C 69.703125 83.597656 69.472656 83.667969 69.242188 83.730469 C 69.007812 83.792969 68.777344 83.851562 68.542969 83.90625 C 68.308594 83.960938 68.074219 84.007812 67.839844 84.050781 C 67.601562 84.09375 67.367188 84.128906 67.128906 84.164062 C 66.894531 84.195312 66.65625 84.222656 66.417969 84.242188 C 66.179688 84.265625 65.941406 84.28125 65.703125 84.292969 C 65.464844 84.304688 65.226562 84.308594 64.988281 84.308594 C 64.355469 84.308594 63.777344 84.308594 63.121094 84.203125 L 74.464844 101.785156 Z M 114.105469 101.785156 "/>
<path style=" stroke:none;fill-rule:nonzero;fill:rgb(31.37255%,19.607843%,56.078434%);fill-opacity:1;" d="M 85.140625 118.355469 L 87.28125 121.6875 C 87.417969 121.929688 87.5625 122.164062 87.710938 122.398438 C 87.863281 122.628906 88.019531 122.851562 88.183594 123.070312 C 88.34375 123.292969 88.515625 123.507812 88.691406 123.714844 C 88.867188 123.921875 89.050781 124.125 89.238281 124.320312 C 89.425781 124.515625 89.617188 124.703125 89.816406 124.886719 C 90.015625 125.066406 90.222656 125.242188 90.429688 125.410156 C 90.640625 125.578125 90.855469 125.738281 91.074219 125.890625 C 91.292969 126.042969 91.515625 126.1875 91.742188 126.328125 C 91.96875 126.464844 92.203125 126.59375 92.4375 126.714844 C 92.671875 126.835938 92.910156 126.949219 93.152344 127.054688 C 93.394531 127.160156 93.636719 127.253906 93.886719 127.34375 C 94.132812 127.429688 94.382812 127.511719 94.636719 127.582031 C 94.886719 127.652344 95.140625 127.714844 95.398438 127.765625 C 95.652344 127.820312 95.910156 127.863281 96.167969 127.898438 C 96.429688 127.933594 96.6875 127.957031 96.945312 127.976562 C 97.207031 127.992188 97.46875 128 97.726562 128 C 98.574219 128 99.414062 127.90625 100.246094 127.722656 C 100.535156 127.65625 100.820312 127.578125 101.105469 127.488281 C 101.390625 127.402344 101.671875 127.304688 101.949219 127.199219 C 102.230469 127.09375 102.503906 126.980469 102.777344 126.855469 C 103.050781 126.734375 103.320312 126.601562 103.585938 126.460938 C 103.851562 126.324219 104.113281 126.175781 104.371094 126.019531 C 104.628906 125.863281 104.882812 125.699219 105.132812 125.523438 C 105.382812 125.351562 105.625 125.171875 105.867188 124.984375 C 106.105469 124.796875 106.339844 124.601562 106.570312 124.398438 C 106.796875 124.199219 107.023438 123.988281 107.238281 123.773438 C 107.457031 123.554688 107.667969 123.332031 107.875 123.101562 C 108.082031 122.871094 108.28125 122.636719 108.472656 122.394531 C 108.667969 122.152344 108.855469 121.902344 109.035156 121.648438 C 109.214844 121.394531 109.386719 121.136719 109.554688 120.871094 C 109.71875 120.605469 109.878906 120.335938 110.03125 120.058594 C 110.179688 119.785156 110.324219 119.503906 110.460938 119.222656 C 110.597656 118.9375 110.726562 118.648438 110.847656 118.355469 Z M 85.140625 118.355469 "/>
<path style=" stroke:none;fill-rule:nonzero;fill:rgb(31.37255%,19.607843%,56.078434%);fill-opacity:1;" d="M 112.265625 113.554688 L 113.355469 106.601562 L 77.5625 106.601562 L 82.039062 113.554688 Z M 112.265625 113.554688 "/>
<path style=" stroke:none;fill-rule:nonzero;fill:rgb(31.37255%,19.607843%,56.078434%);fill-opacity:1;" d="M 18.578125 113.542969 L 30.683594 33.863281 L 48.101562 60.878906 C 48.160156 60.625 48.222656 60.371094 48.289062 60.121094 C 48.359375 59.871094 48.429688 59.625 48.507812 59.375 C 48.585938 59.128906 48.667969 58.882812 48.753906 58.640625 C 48.839844 58.398438 48.929688 58.15625 49.027344 57.917969 C 49.121094 57.679688 49.222656 57.441406 49.328125 57.207031 C 49.433594 56.972656 49.542969 56.738281 49.65625 56.507812 C 49.769531 56.28125 49.886719 56.050781 50.011719 55.828125 C 50.132812 55.601562 50.261719 55.382812 50.390625 55.164062 C 50.523438 54.945312 50.65625 54.726562 50.796875 54.515625 C 50.933594 54.304688 51.078125 54.09375 51.226562 53.886719 C 51.371094 53.679688 51.523438 53.476562 51.679688 53.277344 C 51.832031 53.078125 51.992188 52.882812 52.15625 52.691406 C 52.316406 52.496094 52.484375 52.308594 52.652344 52.125 C 52.824219 51.9375 52.996094 51.757812 53.171875 51.582031 C 53.347656 51.402344 53.527344 51.230469 53.710938 51.0625 C 53.894531 50.890625 54.082031 50.726562 54.269531 50.566406 C 54.460938 50.40625 54.652344 50.25 54.847656 50.097656 C 55.042969 49.945312 55.242188 49.796875 55.441406 49.652344 C 55.644531 49.511719 55.847656 49.371094 56.054688 49.238281 C 56.261719 49.105469 56.46875 48.972656 56.679688 48.847656 C 56.890625 48.726562 57.105469 48.605469 57.320312 48.488281 C 57.539062 48.375 57.753906 48.265625 57.976562 48.160156 C 58.195312 48.054688 58.417969 47.953125 58.640625 47.859375 C 58.867188 47.761719 59.089844 47.671875 59.320312 47.585938 C 59.546875 47.503906 59.777344 47.421875 60.003906 47.347656 C 60.234375 47.273438 60.46875 47.203125 60.699219 47.136719 C 60.933594 47.074219 61.167969 47.015625 61.402344 46.960938 C 61.640625 46.90625 61.875 46.855469 62.113281 46.8125 C 62.351562 46.769531 62.589844 46.730469 62.828125 46.699219 C 63.066406 46.667969 63.304688 46.640625 63.542969 46.617188 C 63.785156 46.59375 64.023438 46.578125 64.265625 46.566406 C 64.503906 46.554688 64.746094 46.550781 64.988281 46.550781 C 65.554688 46.550781 66.125 46.550781 66.679688 46.640625 L 40.679688 6.3125 C 40.519531 6.023438 40.34375 5.738281 40.160156 5.464844 C 39.976562 5.191406 39.78125 4.921875 39.578125 4.664062 C 39.378906 4.40625 39.164062 4.15625 38.945312 3.914062 C 38.722656 3.675781 38.496094 3.441406 38.257812 3.222656 C 38.023438 3 37.777344 2.785156 37.527344 2.585938 C 37.273438 2.382812 37.015625 2.191406 36.75 2.011719 C 36.484375 1.832031 36.214844 1.664062 35.9375 1.507812 C 35.660156 1.347656 35.375 1.203125 35.089844 1.070312 C 34.800781 0.933594 34.507812 0.8125 34.210938 0.703125 C 33.914062 0.59375 33.617188 0.496094 33.3125 0.410156 C 33.011719 0.324219 32.703125 0.253906 32.394531 0.195312 C 32.085938 0.136719 31.777344 0.0898438 31.464844 0.0546875 C 31.152344 0.0234375 30.84375 0 30.527344 -0.0078125 C 30.214844 -0.015625 29.902344 -0.0078125 29.589844 0.0078125 C 29.277344 0.0273438 28.964844 0.0585938 28.65625 0.105469 C 28.34375 0.148438 28.035156 0.207031 27.730469 0.277344 C 21.679688 1.585938 16.835938 7.242188 15.710938 14.433594 L 0.59375 113.542969 Z M 18.578125 113.542969 "/>
<path style=" stroke:none;fill-rule:nonzero;fill:rgb(31.37255%,19.607843%,56.078434%);fill-opacity:1;" d="M 0 118.355469 C 0 118.503906 0.00390625 118.65625 0.0078125 118.804688 C 0.015625 118.953125 0.0234375 119.101562 0.0390625 119.25 C 0.0507812 119.398438 0.0664062 119.546875 0.0859375 119.691406 C 0.105469 119.839844 0.125 119.988281 0.152344 120.132812 C 0.175781 120.28125 0.207031 120.425781 0.238281 120.570312 C 0.269531 120.714844 0.304688 120.859375 0.339844 121.003906 C 0.378906 121.144531 0.421875 121.289062 0.464844 121.429688 C 0.507812 121.570312 0.554688 121.710938 0.605469 121.847656 C 0.65625 121.988281 0.707031 122.125 0.761719 122.261719 C 0.820312 122.398438 0.878906 122.53125 0.9375 122.664062 C 1 122.796875 1.066406 122.929688 1.132812 123.058594 C 1.199219 123.1875 1.269531 123.316406 1.34375 123.445312 C 1.414062 123.570312 1.488281 123.695312 1.566406 123.816406 C 1.644531 123.941406 1.726562 124.058594 1.808594 124.179688 C 1.894531 124.296875 1.980469 124.414062 2.066406 124.527344 C 2.15625 124.640625 2.246094 124.753906 2.339844 124.863281 C 2.433594 124.972656 2.527344 125.082031 2.625 125.183594 C 2.722656 125.289062 2.820312 125.390625 2.925781 125.492188 C 3.027344 125.589844 3.128906 125.6875 3.234375 125.785156 C 3.34375 125.878906 3.449219 125.96875 3.5625 126.058594 C 3.671875 126.148438 3.78125 126.234375 3.898438 126.316406 C 4.011719 126.402344 4.125 126.480469 4.242188 126.558594 C 4.359375 126.636719 4.480469 126.710938 4.601562 126.78125 C 4.71875 126.855469 4.84375 126.921875 4.964844 126.988281 C 5.089844 127.054688 5.214844 127.117188 5.339844 127.175781 C 5.464844 127.234375 5.59375 127.289062 5.722656 127.34375 C 5.851562 127.394531 5.980469 127.445312 6.109375 127.492188 C 6.242188 127.539062 6.371094 127.582031 6.503906 127.621094 C 6.636719 127.660156 6.769531 127.695312 6.90625 127.730469 C 7.039062 127.761719 7.171875 127.792969 7.308594 127.816406 C 7.445312 127.84375 7.578125 127.867188 7.714844 127.886719 C 7.851562 127.90625 7.988281 127.921875 8.125 127.933594 C 8.261719 127.945312 8.398438 127.953125 8.535156 127.960938 C 8.675781 127.964844 8.8125 127.96875 8.949219 127.964844 C 9.085938 127.964844 9.222656 127.960938 9.359375 127.949219 C 9.496094 127.941406 9.632812 127.929688 9.769531 127.914062 C 9.90625 127.898438 10.042969 127.882812 10.179688 127.859375 C 10.316406 127.835938 10.453125 127.8125 10.585938 127.78125 C 10.71875 127.753906 10.855469 127.722656 10.988281 127.683594 C 11.121094 127.648438 11.253906 127.609375 11.386719 127.566406 C 11.515625 127.523438 11.648438 127.480469 11.777344 127.429688 C 11.90625 127.382812 12.035156 127.328125 12.164062 127.273438 C 12.292969 127.21875 12.417969 127.160156 12.542969 127.097656 C 12.667969 127.035156 12.789062 126.96875 12.914062 126.902344 C 13.035156 126.835938 13.15625 126.761719 13.273438 126.6875 C 13.394531 126.613281 13.511719 126.539062 13.628906 126.457031 C 13.742188 126.378906 13.855469 126.292969 13.96875 126.207031 C 14.082031 126.121094 14.191406 126.035156 14.300781 125.941406 C 14.410156 125.851562 14.515625 125.757812 14.621094 125.660156 C 14.722656 125.5625 14.828125 125.464844 14.925781 125.363281 C 15.027344 125.261719 15.125 125.15625 15.21875 125.046875 C 15.316406 124.941406 15.410156 124.832031 15.5 124.722656 C 15.589844 124.609375 15.679688 124.496094 15.765625 124.378906 C 15.851562 124.261719 15.933594 124.144531 16.015625 124.023438 C 16.097656 123.90625 16.175781 123.78125 16.25 123.660156 C 16.328125 123.535156 16.398438 123.40625 16.46875 123.28125 C 16.539062 123.152344 16.609375 123.023438 16.671875 122.890625 C 16.738281 122.757812 16.800781 122.625 16.859375 122.492188 C 16.917969 122.359375 16.972656 122.222656 17.027344 122.085938 C 17.082031 121.949219 17.132812 121.808594 17.179688 121.667969 C 17.226562 121.53125 17.269531 121.386719 17.3125 121.246094 C 17.351562 121.105469 17.390625 120.960938 17.425781 120.816406 C 17.460938 120.671875 17.492188 120.527344 17.523438 120.382812 C 17.550781 120.238281 17.578125 120.089844 17.597656 119.945312 L 17.839844 118.355469 Z M 0 118.355469 "/>
<path style=" stroke:none;fill-rule:nonzero;fill:rgb(31.37255%,19.607843%,56.078434%);fill-opacity:1;" d="M 64.988281 56.929688 C 64.871094 56.929688 64.753906 56.933594 64.636719 56.945312 C 64.519531 56.953125 64.40625 56.96875 64.289062 56.988281 C 64.175781 57.007812 64.058594 57.03125 63.945312 57.058594 C 63.832031 57.085938 63.71875 57.121094 63.609375 57.15625 C 63.496094 57.195312 63.386719 57.234375 63.277344 57.28125 C 63.167969 57.328125 63.0625 57.378906 62.957031 57.433594 C 62.851562 57.488281 62.75 57.546875 62.648438 57.609375 C 62.546875 57.675781 62.449219 57.742188 62.351562 57.8125 C 62.253906 57.882812 62.160156 57.957031 62.070312 58.035156 C 61.976562 58.113281 61.890625 58.199219 61.804688 58.285156 C 61.71875 58.367188 61.636719 58.457031 61.554688 58.550781 C 61.476562 58.644531 61.398438 58.738281 61.328125 58.835938 C 61.253906 58.933594 61.183594 59.035156 61.117188 59.140625 C 61.050781 59.246094 60.988281 59.351562 60.929688 59.460938 C 60.871094 59.570312 60.816406 59.679688 60.765625 59.792969 C 60.714844 59.90625 60.664062 60.023438 60.621094 60.140625 C 60.578125 60.257812 60.539062 60.378906 60.503906 60.5 C 60.46875 60.617188 60.4375 60.742188 60.410156 60.863281 C 60.382812 60.988281 60.359375 61.109375 60.34375 61.234375 C 60.324219 61.359375 60.308594 61.484375 60.300781 61.613281 C 60.289062 61.738281 60.285156 61.863281 60.285156 61.988281 C 60.28125 62.117188 60.285156 62.242188 60.292969 62.371094 C 60.300781 62.496094 60.3125 62.621094 60.328125 62.746094 C 60.34375 62.871094 60.363281 62.996094 60.386719 63.121094 C 60.414062 63.242188 60.441406 63.367188 60.476562 63.488281 C 60.507812 63.609375 60.542969 63.730469 60.585938 63.847656 C 60.625 63.964844 60.671875 64.082031 60.722656 64.195312 C 60.769531 64.3125 60.824219 64.425781 60.878906 64.535156 C 60.9375 64.644531 60.996094 64.753906 61.0625 64.859375 C 61.125 64.964844 61.191406 65.066406 61.265625 65.167969 C 61.335938 65.265625 61.410156 65.363281 61.488281 65.460938 C 61.566406 65.554688 61.644531 65.644531 61.730469 65.730469 L 60.351562 73.933594 L 69.621094 73.933594 L 68.242188 65.730469 C 68.328125 65.644531 68.40625 65.554688 68.484375 65.460938 C 68.5625 65.363281 68.636719 65.265625 68.707031 65.167969 C 68.78125 65.066406 68.847656 64.964844 68.910156 64.859375 C 68.976562 64.753906 69.035156 64.644531 69.09375 64.535156 C 69.148438 64.425781 69.203125 64.3125 69.253906 64.195312 C 69.300781 64.082031 69.347656 63.964844 69.386719 63.847656 C 69.429688 63.730469 69.464844 63.609375 69.5 63.488281 C 69.53125 63.367188 69.558594 63.242188 69.585938 63.121094 C 69.609375 62.996094 69.628906 62.871094 69.644531 62.746094 C 69.660156 62.621094 69.671875 62.496094 69.679688 62.371094 C 69.6875 62.242188 69.691406 62.117188 69.6875 61.988281 C 69.6875 61.863281 69.683594 61.738281 69.671875 61.613281 C 69.664062 61.484375 69.648438 61.359375 69.628906 61.234375 C 69.613281 61.109375 69.589844 60.988281 69.5625 60.863281 C 69.535156 60.742188 69.503906 60.617188 69.46875 60.5 C 69.433594 60.378906 69.394531 60.257812 69.351562 60.140625 C 69.308594 60.023438 69.261719 59.90625 69.207031 59.792969 C 69.15625 59.679688 69.101562 59.570312 69.042969 59.460938 C 68.984375 59.351562 68.921875 59.246094 68.855469 59.140625 C 68.789062 59.035156 68.71875 58.933594 68.644531 58.835938 C 68.574219 58.738281 68.496094 58.644531 68.417969 58.550781 C 68.335938 58.457031 68.253906 58.367188 68.167969 58.285156 C 68.082031 58.199219 67.996094 58.113281 67.902344 58.035156 C 67.8125 57.957031 67.71875 57.882812 67.621094 57.8125 C 67.523438 57.742188 67.425781 57.675781 67.324219 57.609375 C 67.222656 57.546875 67.121094 57.488281 67.015625 57.433594 C 66.910156 57.378906 66.804688 57.328125 66.695312 57.28125 C 66.585938 57.234375 66.476562 57.195312 66.363281 57.15625 C 66.253906 57.121094 66.140625 57.085938 66.027344 57.058594 C 65.914062 57.03125 65.796875 57.007812 65.683594 56.988281 C 65.566406 56.96875 65.453125 56.953125 65.335938 56.945312 C 65.21875 56.933594 65.101562 56.929688 64.988281 56.929688 Z M 64.988281 56.929688 "/>
</g>
</svg>
