<?xml version="1.0" encoding="UTF-8"?>
<svg xmlns="http://www.w3.org/2000/svg" xmlns:xlink="http://www.w3.org/1999/xlink" width="32px" height="29px" viewBox="0 0 32 29" version="1.1">
<defs>
<filter id="alpha" filterUnits="objectBoundingBox" x="0%" y="0%" width="100%" height="100%">
  <feColorMatrix type="matrix" in="SourceGraphic" values="0 0 0 0 1 0 0 0 0 1 0 0 0 0 1 0 0 0 1 0"/>
</filter>
<mask id="mask0">
  <g filter="url(#alpha)">
<rect x="0" y="0" width="32" height="29" style="fill:rgb(0%,0%,0%);fill-opacity:0.501961;stroke:none;"/>
  </g>
</mask>
<linearGradient id="linear0" gradientUnits="userSpaceOnUse" x1="235.273438" y1="115.25029" x2="356.308594" y2="115.25029" gradientTransform="matrix(0.073903,0,0,0.0726817,0,0)">
<stop offset="0" style="stop-color:rgb(31.372549%,19.607843%,56.078431%);stop-opacity:1;"/>
<stop offset="0.42" style="stop-color:rgb(31.372549%,19.607843%,56.078431%);stop-opacity:0.988235;"/>
<stop offset="0.58" style="stop-color:rgb(31.372549%,19.607843%,56.078431%);stop-opacity:0.941176;"/>
<stop offset="0.65" style="stop-color:rgb(31.372549%,19.607843%,56.078431%);stop-opacity:0.890196;"/>
<stop offset="1" style="stop-color:rgb(31.372549%,19.607843%,56.078431%);stop-opacity:0.501961;"/>
</linearGradient>
<clipPath id="clip1">
  <rect x="0" y="0" width="32" height="29"/>
</clipPath>
<g id="surface5" clip-path="url(#clip1)">
<path style=" stroke:none;fill-rule:nonzero;fill:url(#linear0);" d="M 26.328125 2.917969 L 17.386719 10.699219 C 17.480469 10.726562 17.574219 10.753906 17.664062 10.785156 C 17.757812 10.816406 17.847656 10.851562 17.9375 10.886719 C 18.027344 10.925781 18.113281 10.964844 18.203125 11.007812 C 18.289062 11.050781 18.375 11.097656 18.457031 11.144531 C 18.539062 11.195312 18.621094 11.246094 18.703125 11.300781 C 18.78125 11.355469 18.859375 11.410156 18.9375 11.46875 C 19.011719 11.527344 19.085938 11.589844 19.160156 11.652344 C 19.230469 11.71875 19.300781 11.785156 19.371094 11.851562 C 19.4375 11.921875 19.503906 11.992188 19.566406 12.066406 C 19.628906 12.136719 19.6875 12.210938 19.746094 12.289062 C 19.804688 12.367188 19.859375 12.445312 19.910156 12.523438 C 19.964844 12.605469 20.011719 12.6875 20.058594 12.769531 C 20.105469 12.855469 20.152344 12.9375 20.191406 13.023438 C 20.234375 13.113281 20.269531 13.199219 20.304688 13.289062 C 20.339844 13.378906 20.375 13.46875 20.402344 13.558594 C 20.429688 13.648438 20.457031 13.742188 20.480469 13.835938 L 25.148438 9.769531 Z M 26.328125 2.917969 "/>
</g>
<linearGradient id="linear1" gradientUnits="userSpaceOnUse" x1="29.439941" y1="369.717072" x2="152.194824" y2="260.642395" gradientTransform="matrix(0.073903,0,0,0.0726817,0,0)">
<stop offset="0" style="stop-color:rgb(31.372549%,19.607843%,56.078431%);stop-opacity:1;"/>
<stop offset="0.42" style="stop-color:rgb(31.372549%,19.607843%,56.078431%);stop-opacity:0.988235;"/>
<stop offset="0.58" style="stop-color:rgb(31.372549%,19.607843%,56.078431%);stop-opacity:0.941176;"/>
<stop offset="0.65" style="stop-color:rgb(31.372549%,19.607843%,56.078431%);stop-opacity:0.890196;"/>
<stop offset="1" style="stop-color:rgb(31.372549%,19.607843%,56.078431%);stop-opacity:0.501961;"/>
</linearGradient>
<linearGradient id="linear2" gradientUnits="userSpaceOnUse" x1="312.660645" y1="216.063507" x2="342.264282" y2="37.012589" gradientTransform="matrix(0.073903,0,0,0.0726817,0,0)">
<stop offset="0" style="stop-color:rgb(31.372549%,19.607843%,56.078431%);stop-opacity:1;"/>
<stop offset="0.5" style="stop-color:rgb(31.372549%,19.607843%,56.078431%);stop-opacity:0.501961;"/>
</linearGradient>
</defs>
<g id="surface1">
<use xlink:href="#surface5" mask="url(#mask0)"/>
<path style=" stroke:none;fill-rule:nonzero;fill:url(#linear1);" d="M 6.816406 25.722656 L 14.738281 18.832031 C 14.644531 18.796875 14.554688 18.761719 14.46875 18.722656 C 14.378906 18.683594 14.292969 18.640625 14.207031 18.597656 C 14.121094 18.550781 14.035156 18.503906 13.953125 18.453125 C 13.871094 18.402344 13.789062 18.351562 13.710938 18.292969 C 13.632812 18.238281 13.554688 18.179688 13.480469 18.121094 C 13.40625 18.058594 13.332031 17.996094 13.261719 17.929688 C 13.191406 17.867188 13.125 17.796875 13.058594 17.726562 C 12.992188 17.65625 12.929688 17.585938 12.867188 17.511719 C 12.804688 17.4375 12.746094 17.359375 12.691406 17.28125 C 12.636719 17.203125 12.582031 17.125 12.53125 17.042969 C 12.480469 16.960938 12.433594 16.878906 12.390625 16.792969 C 12.34375 16.710938 12.300781 16.625 12.261719 16.535156 C 12.222656 16.449219 12.1875 16.359375 12.15625 16.269531 C 12.121094 16.179688 12.09375 16.089844 12.066406 16 C 12.039062 15.90625 12.015625 15.8125 11.996094 15.722656 C 11.976562 15.628906 11.957031 15.535156 11.945312 15.4375 L 0.746094 25.1875 C 0.570312 25.34375 0.421875 25.523438 0.300781 25.722656 Z M 6.816406 25.722656 "/>
<path style=" stroke:none;fill-rule:nonzero;fill:rgb(31.37255%,19.607843%,56.078434%);fill-opacity:1;" d="M 0 26.816406 C 0 26.882812 0 26.945312 0.0078125 27.011719 C 0.0117188 27.078125 0.0195312 27.144531 0.03125 27.207031 C 0.0429688 27.273438 0.0585938 27.335938 0.0742188 27.402344 C 0.09375 27.464844 0.113281 27.527344 0.136719 27.589844 C 0.160156 27.652344 0.1875 27.710938 0.214844 27.769531 C 0.242188 27.832031 0.277344 27.886719 0.308594 27.945312 C 0.34375 28 0.382812 28.054688 0.421875 28.109375 C 0.460938 28.164062 0.503906 28.214844 0.546875 28.261719 C 0.570312 28.289062 0.597656 28.316406 0.621094 28.339844 C 0.648438 28.367188 0.671875 28.390625 0.699219 28.414062 C 0.726562 28.441406 0.753906 28.464844 0.78125 28.488281 C 0.808594 28.507812 0.835938 28.53125 0.867188 28.554688 C 0.894531 28.574219 0.925781 28.59375 0.953125 28.617188 C 0.984375 28.636719 1.015625 28.65625 1.046875 28.671875 C 1.078125 28.691406 1.109375 28.710938 1.140625 28.726562 C 1.171875 28.746094 1.203125 28.761719 1.238281 28.777344 C 1.269531 28.792969 1.304688 28.808594 1.335938 28.820312 C 1.371094 28.835938 1.402344 28.847656 1.4375 28.859375 C 1.472656 28.875 1.503906 28.882812 1.539062 28.894531 C 1.574219 28.90625 1.609375 28.917969 1.644531 28.925781 C 1.679688 28.933594 1.714844 28.941406 1.75 28.949219 C 1.785156 28.957031 1.820312 28.964844 1.859375 28.96875 C 1.894531 28.976562 1.929688 28.980469 1.964844 28.984375 C 2 28.988281 2.039062 28.992188 2.074219 28.992188 C 2.109375 28.996094 2.148438 28.996094 2.183594 28.996094 C 2.21875 28.996094 2.253906 28.996094 2.292969 28.996094 C 2.328125 28.992188 2.363281 28.992188 2.402344 28.988281 C 2.4375 28.984375 2.472656 28.980469 2.507812 28.976562 C 2.542969 28.972656 2.582031 28.964844 2.617188 28.960938 C 2.652344 28.953125 2.6875 28.945312 2.722656 28.9375 C 2.757812 28.929688 2.792969 28.921875 2.828125 28.910156 C 2.863281 28.898438 2.898438 28.890625 2.933594 28.878906 C 2.964844 28.867188 3 28.855469 3.035156 28.839844 C 3.066406 28.828125 3.101562 28.8125 3.132812 28.796875 C 3.167969 28.785156 3.199219 28.769531 3.230469 28.75 C 3.265625 28.734375 3.296875 28.71875 3.328125 28.699219 C 3.359375 28.683594 3.390625 28.664062 3.417969 28.644531 C 3.449219 28.625 3.480469 28.605469 3.507812 28.582031 C 3.539062 28.5625 3.566406 28.542969 3.597656 28.519531 C 3.625 28.496094 3.652344 28.472656 3.679688 28.449219 L 5.558594 26.816406 Z M 0 26.816406 "/>
<path style=" stroke:none;fill-rule:nonzero;fill:url(#linear2);" d="M 28.527344 23.0625 L 31.964844 3.195312 C 31.972656 3.160156 31.980469 3.125 31.984375 3.089844 C 31.988281 3.054688 31.992188 3.015625 31.996094 2.980469 C 32 2.945312 32 2.910156 32.003906 2.875 C 32.003906 2.835938 32.003906 2.800781 32.003906 2.765625 C 32.003906 2.730469 32.003906 2.691406 32 2.65625 C 32 2.621094 31.996094 2.585938 31.992188 2.550781 C 31.988281 2.515625 31.980469 2.476562 31.976562 2.441406 C 31.96875 2.40625 31.964844 2.371094 31.957031 2.335938 C 31.949219 2.300781 31.9375 2.265625 31.929688 2.230469 C 31.921875 2.195312 31.910156 2.160156 31.898438 2.128906 C 31.886719 2.09375 31.875 2.058594 31.863281 2.027344 C 31.847656 1.992188 31.835938 1.957031 31.820312 1.925781 C 31.804688 1.890625 31.789062 1.859375 31.773438 1.828125 C 31.757812 1.796875 31.742188 1.761719 31.722656 1.730469 C 31.707031 1.699219 31.6875 1.667969 31.667969 1.636719 C 31.648438 1.609375 31.628906 1.578125 31.605469 1.546875 C 31.585938 1.519531 31.5625 1.488281 31.542969 1.460938 C 31.519531 1.433594 31.496094 1.40625 31.472656 1.378906 C 31.449219 1.351562 31.425781 1.324219 31.398438 1.296875 C 31.375 1.269531 31.347656 1.246094 31.320312 1.21875 C 31.292969 1.195312 31.269531 1.171875 31.238281 1.148438 C 31.210938 1.125 31.183594 1.101562 31.15625 1.078125 C 31.125 1.054688 31.097656 1.035156 31.066406 1.015625 C 31.035156 0.992188 31.007812 0.972656 30.976562 0.953125 C 30.945312 0.933594 30.914062 0.917969 30.882812 0.898438 C 30.847656 0.878906 30.816406 0.863281 30.785156 0.847656 C 30.75 0.832031 30.71875 0.816406 30.683594 0.800781 C 30.652344 0.785156 30.617188 0.773438 30.582031 0.761719 C 30.546875 0.746094 30.515625 0.734375 30.480469 0.722656 C 30.445312 0.710938 30.410156 0.703125 30.375 0.691406 C 30.339844 0.683594 30.300781 0.675781 30.265625 0.667969 C 30.230469 0.660156 30.195312 0.652344 30.160156 0.644531 C 30.121094 0.640625 30.085938 0.632812 30.050781 0.628906 C 30.011719 0.625 29.976562 0.621094 29.941406 0.621094 C 29.902344 0.617188 29.867188 0.617188 29.832031 0.613281 C 29.792969 0.613281 29.757812 0.613281 29.71875 0.617188 C 29.683594 0.617188 29.648438 0.617188 29.609375 0.621094 C 29.574219 0.625 29.539062 0.628906 29.5 0.632812 C 29.464844 0.636719 29.429688 0.644531 29.390625 0.648438 C 29.355469 0.65625 29.320312 0.664062 29.285156 0.671875 C 29.25 0.679688 29.214844 0.6875 29.179688 0.699219 C 29.144531 0.707031 29.109375 0.71875 29.074219 0.730469 C 29.039062 0.742188 29.003906 0.753906 28.96875 0.769531 C 28.9375 0.78125 28.902344 0.796875 28.867188 0.808594 C 28.835938 0.824219 28.800781 0.839844 28.769531 0.855469 C 28.738281 0.875 28.703125 0.890625 28.671875 0.910156 C 28.640625 0.925781 28.609375 0.945312 28.578125 0.964844 C 28.546875 0.984375 28.519531 1.003906 28.488281 1.027344 C 28.457031 1.046875 28.429688 1.070312 28.402344 1.09375 C 28.371094 1.113281 28.34375 1.136719 28.316406 1.160156 C 28.289062 1.1875 28.261719 1.210938 28.234375 1.234375 C 28.210938 1.261719 28.183594 1.285156 28.160156 1.3125 C 28.132812 1.339844 28.109375 1.367188 28.085938 1.394531 C 28.0625 1.421875 28.039062 1.449219 28.019531 1.480469 C 27.996094 1.507812 27.972656 1.535156 27.953125 1.566406 C 27.933594 1.597656 27.914062 1.625 27.894531 1.65625 C 27.875 1.6875 27.855469 1.71875 27.839844 1.75 C 27.820312 1.78125 27.804688 1.816406 27.789062 1.847656 C 27.773438 1.878906 27.757812 1.914062 27.742188 1.945312 C 27.730469 1.980469 27.714844 2.011719 27.703125 2.046875 C 27.691406 2.078125 27.679688 2.113281 27.667969 2.148438 C 27.65625 2.183594 27.648438 2.21875 27.636719 2.253906 C 27.628906 2.289062 27.621094 2.324219 27.613281 2.359375 C 27.605469 2.394531 27.601562 2.429688 27.59375 2.464844 L 24.324219 21.335938 L 20.457031 15.894531 C 20.441406 15.949219 20.425781 16.007812 20.40625 16.0625 C 20.390625 16.121094 20.371094 16.175781 20.351562 16.230469 C 20.332031 16.285156 20.3125 16.339844 20.289062 16.394531 C 20.269531 16.449219 20.246094 16.503906 20.21875 16.558594 C 20.195312 16.613281 20.171875 16.664062 20.144531 16.71875 C 20.117188 16.769531 20.089844 16.820312 20.0625 16.875 C 20.035156 16.925781 20.003906 16.976562 19.972656 17.027344 C 19.941406 17.078125 19.910156 17.125 19.878906 17.175781 C 19.84375 17.222656 19.8125 17.273438 19.777344 17.320312 C 19.742188 17.367188 19.707031 17.414062 19.667969 17.460938 C 19.632812 17.507812 19.59375 17.550781 19.554688 17.597656 C 19.515625 17.640625 19.476562 17.6875 19.4375 17.730469 C 19.394531 17.773438 19.355469 17.8125 19.3125 17.855469 C 19.269531 17.898438 19.226562 17.9375 19.183594 17.976562 C 19.136719 18.015625 19.09375 18.054688 19.046875 18.09375 C 19.003906 18.132812 18.957031 18.167969 18.910156 18.203125 C 18.863281 18.238281 18.8125 18.273438 18.765625 18.308594 C 18.714844 18.34375 18.667969 18.375 18.617188 18.40625 C 18.566406 18.441406 18.515625 18.472656 18.464844 18.5 C 18.414062 18.53125 18.363281 18.558594 18.308594 18.585938 C 18.257812 18.617188 18.203125 18.640625 18.148438 18.667969 C 18.097656 18.695312 18.042969 18.71875 17.988281 18.742188 C 17.933594 18.765625 17.878906 18.789062 17.820312 18.808594 C 17.765625 18.832031 17.710938 18.851562 17.652344 18.871094 C 17.597656 18.890625 17.539062 18.90625 17.484375 18.921875 C 17.425781 18.941406 17.367188 18.957031 17.308594 18.96875 C 17.253906 18.984375 17.195312 18.996094 17.136719 19.011719 C 17.078125 19.023438 17.019531 19.03125 16.960938 19.042969 C 16.902344 19.050781 16.84375 19.0625 16.78125 19.066406 C 16.722656 19.074219 16.664062 19.082031 16.605469 19.085938 C 16.546875 19.089844 16.484375 19.09375 16.425781 19.097656 C 16.367188 19.101562 16.304688 19.101562 16.246094 19.101562 C 16.089844 19.101562 15.945312 19.101562 15.78125 19.078125 L 18.617188 23.0625 Z M 28.527344 23.0625 "/>
<path style=" stroke:none;fill-rule:nonzero;fill:rgb(31.37255%,19.607843%,56.078434%);fill-opacity:1;" d="M 21.285156 26.816406 L 21.820312 27.570312 C 21.855469 27.625 21.890625 27.679688 21.929688 27.730469 C 21.964844 27.78125 22.003906 27.832031 22.046875 27.882812 C 22.085938 27.933594 22.128906 27.980469 22.171875 28.027344 C 22.214844 28.074219 22.261719 28.121094 22.308594 28.167969 C 22.355469 28.210938 22.40625 28.253906 22.453125 28.292969 C 22.503906 28.335938 22.554688 28.375 22.609375 28.414062 C 22.660156 28.453125 22.714844 28.488281 22.769531 28.523438 C 22.824219 28.558594 22.878906 28.589844 22.9375 28.621094 C 22.992188 28.652344 23.050781 28.679688 23.109375 28.707031 C 23.167969 28.738281 23.226562 28.761719 23.289062 28.785156 C 23.347656 28.808594 23.410156 28.832031 23.472656 28.851562 C 23.535156 28.871094 23.597656 28.890625 23.660156 28.90625 C 23.722656 28.921875 23.785156 28.933594 23.847656 28.945312 C 23.914062 28.960938 23.976562 28.96875 24.042969 28.976562 C 24.105469 28.984375 24.171875 28.992188 24.238281 28.996094 C 24.300781 29 24.367188 29 24.433594 29 C 24.644531 29 24.855469 28.980469 25.0625 28.9375 C 25.132812 28.921875 25.203125 28.902344 25.277344 28.882812 C 25.347656 28.863281 25.417969 28.84375 25.488281 28.820312 C 25.558594 28.792969 25.625 28.769531 25.695312 28.742188 C 25.761719 28.714844 25.828125 28.683594 25.898438 28.652344 C 25.964844 28.621094 26.027344 28.585938 26.09375 28.550781 C 26.15625 28.515625 26.222656 28.476562 26.285156 28.4375 C 26.34375 28.398438 26.40625 28.359375 26.464844 28.316406 C 26.527344 28.273438 26.585938 28.230469 26.640625 28.183594 C 26.699219 28.136719 26.753906 28.089844 26.808594 28.042969 C 26.863281 27.992188 26.917969 27.941406 26.96875 27.890625 C 27.019531 27.839844 27.070312 27.785156 27.117188 27.730469 C 27.167969 27.675781 27.214844 27.617188 27.257812 27.5625 C 27.304688 27.503906 27.347656 27.445312 27.386719 27.382812 C 27.429688 27.324219 27.46875 27.261719 27.507812 27.199219 C 27.546875 27.140625 27.582031 27.074219 27.617188 27.011719 C 27.648438 26.945312 27.683594 26.882812 27.710938 26.816406 Z M 21.285156 26.816406 "/>
<path style=" stroke:none;fill-rule:nonzero;fill:rgb(31.37255%,19.607843%,56.078434%);fill-opacity:1;" d="M 28.066406 25.726562 L 28.339844 24.152344 L 19.390625 24.152344 L 20.511719 25.726562 Z M 28.066406 25.726562 "/>
<path style=" stroke:none;fill-rule:nonzero;fill:rgb(31.37255%,19.607843%,56.078434%);fill-opacity:1;" d="M 4.644531 25.722656 L 7.671875 7.671875 L 12.023438 13.792969 C 12.039062 13.734375 12.054688 13.679688 12.074219 13.621094 C 12.089844 13.566406 12.109375 13.507812 12.128906 13.453125 C 12.144531 13.398438 12.167969 13.339844 12.1875 13.285156 C 12.210938 13.230469 12.234375 13.175781 12.257812 13.121094 C 12.28125 13.066406 12.304688 13.015625 12.332031 12.960938 C 12.359375 12.90625 12.386719 12.855469 12.414062 12.804688 C 12.441406 12.75 12.472656 12.699219 12.503906 12.648438 C 12.535156 12.597656 12.566406 12.546875 12.597656 12.496094 C 12.628906 12.449219 12.664062 12.398438 12.699219 12.351562 C 12.734375 12.304688 12.769531 12.253906 12.804688 12.207031 C 12.84375 12.160156 12.882812 12.117188 12.917969 12.070312 C 12.957031 12.027344 13 11.980469 13.039062 11.9375 C 13.078125 11.894531 13.121094 11.851562 13.164062 11.808594 C 13.207031 11.765625 13.25 11.726562 13.292969 11.6875 C 13.335938 11.644531 13.382812 11.605469 13.429688 11.570312 C 13.472656 11.53125 13.519531 11.492188 13.566406 11.457031 C 13.613281 11.421875 13.664062 11.382812 13.710938 11.351562 C 13.761719 11.316406 13.808594 11.28125 13.859375 11.25 C 13.910156 11.21875 13.960938 11.1875 14.011719 11.15625 C 14.066406 11.125 14.117188 11.097656 14.171875 11.066406 C 14.222656 11.039062 14.277344 11.011719 14.332031 10.984375 C 14.382812 10.960938 14.4375 10.933594 14.492188 10.910156 C 14.550781 10.886719 14.605469 10.863281 14.660156 10.84375 C 14.714844 10.820312 14.773438 10.800781 14.828125 10.78125 C 14.886719 10.761719 14.945312 10.742188 15 10.726562 C 15.058594 10.710938 15.117188 10.695312 15.175781 10.679688 C 15.234375 10.664062 15.292969 10.652344 15.351562 10.640625 C 15.410156 10.628906 15.46875 10.617188 15.527344 10.605469 C 15.585938 10.597656 15.648438 10.585938 15.707031 10.582031 C 15.765625 10.574219 15.828125 10.566406 15.886719 10.5625 C 15.945312 10.558594 16.007812 10.554688 16.066406 10.550781 C 16.125 10.546875 16.1875 10.546875 16.246094 10.546875 C 16.390625 10.546875 16.53125 10.546875 16.671875 10.566406 L 10.171875 1.429688 C 10.128906 1.363281 10.085938 1.300781 10.039062 1.238281 C 9.992188 1.175781 9.945312 1.117188 9.894531 1.058594 C 9.84375 1 9.792969 0.941406 9.734375 0.886719 C 9.679688 0.832031 9.625 0.78125 9.566406 0.730469 C 9.503906 0.679688 9.445312 0.632812 9.382812 0.585938 C 9.320312 0.539062 9.253906 0.496094 9.1875 0.457031 C 9.121094 0.414062 9.054688 0.375 8.984375 0.339844 C 8.914062 0.304688 8.84375 0.273438 8.773438 0.242188 C 8.699219 0.210938 8.628906 0.183594 8.554688 0.160156 C 8.480469 0.132812 8.402344 0.113281 8.328125 0.09375 C 8.253906 0.0742188 8.175781 0.0585938 8.097656 0.0429688 C 8.023438 0.03125 7.945312 0.0195312 7.867188 0.0117188 C 7.789062 0.00390625 7.710938 0 7.632812 0 C 7.554688 -0.00390625 7.476562 -0.00390625 7.398438 0.00390625 C 7.320312 0.0078125 7.242188 0.0117188 7.164062 0.0234375 C 7.085938 0.0351562 7.007812 0.046875 6.933594 0.0625 C 5.417969 0.359375 4.210938 1.640625 3.929688 3.269531 L 0.148438 25.722656 Z M 4.644531 25.722656 "/>
<path style=" stroke:none;fill-rule:nonzero;fill:rgb(31.37255%,19.607843%,56.078434%);fill-opacity:1;" d="M 0 26.816406 C 0 26.847656 0 26.882812 0.00390625 26.917969 C 0.00390625 26.949219 0.0078125 26.984375 0.0078125 27.015625 C 0.0117188 27.050781 0.015625 27.085938 0.0195312 27.117188 C 0.0273438 27.152344 0.03125 27.183594 0.0390625 27.21875 C 0.0429688 27.25 0.0507812 27.285156 0.0585938 27.316406 C 0.0664062 27.347656 0.0742188 27.382812 0.0859375 27.414062 C 0.09375 27.445312 0.105469 27.480469 0.117188 27.511719 C 0.125 27.542969 0.136719 27.574219 0.152344 27.605469 C 0.164062 27.636719 0.175781 27.667969 0.191406 27.699219 C 0.203125 27.730469 0.21875 27.761719 0.234375 27.792969 C 0.25 27.820312 0.265625 27.851562 0.28125 27.878906 C 0.300781 27.910156 0.316406 27.9375 0.335938 27.96875 C 0.355469 27.996094 0.371094 28.023438 0.390625 28.050781 C 0.410156 28.078125 0.433594 28.105469 0.453125 28.132812 C 0.472656 28.160156 0.496094 28.1875 0.515625 28.214844 C 0.539062 28.238281 0.5625 28.265625 0.585938 28.289062 C 0.609375 28.3125 0.632812 28.339844 0.65625 28.363281 C 0.679688 28.386719 0.707031 28.410156 0.730469 28.433594 C 0.757812 28.453125 0.78125 28.476562 0.808594 28.496094 C 0.835938 28.519531 0.863281 28.539062 0.890625 28.558594 C 0.917969 28.582031 0.945312 28.601562 0.972656 28.617188 C 1.003906 28.636719 1.03125 28.65625 1.0625 28.671875 C 1.089844 28.691406 1.121094 28.707031 1.148438 28.722656 C 1.179688 28.742188 1.210938 28.757812 1.242188 28.769531 C 1.273438 28.785156 1.304688 28.800781 1.335938 28.8125 C 1.367188 28.828125 1.398438 28.839844 1.429688 28.851562 C 1.460938 28.863281 1.496094 28.875 1.527344 28.886719 C 1.558594 28.894531 1.59375 28.90625 1.625 28.914062 C 1.660156 28.921875 1.691406 28.929688 1.726562 28.9375 C 1.757812 28.945312 1.792969 28.953125 1.828125 28.957031 C 1.859375 28.964844 1.894531 28.96875 1.929688 28.972656 C 1.964844 28.976562 1.996094 28.980469 2.03125 28.984375 C 2.066406 28.988281 2.101562 28.988281 2.132812 28.992188 C 2.167969 28.992188 2.203125 28.992188 2.238281 28.992188 C 2.273438 28.992188 2.304688 28.992188 2.339844 28.988281 C 2.375 28.988281 2.410156 28.984375 2.441406 28.980469 C 2.476562 28.976562 2.511719 28.972656 2.546875 28.96875 C 2.578125 28.964844 2.613281 28.957031 2.644531 28.949219 C 2.679688 28.945312 2.714844 28.9375 2.746094 28.929688 C 2.78125 28.921875 2.8125 28.910156 2.847656 28.902344 C 2.878906 28.890625 2.910156 28.882812 2.945312 28.871094 C 2.976562 28.859375 3.007812 28.847656 3.039062 28.835938 C 3.074219 28.824219 3.105469 28.808594 3.136719 28.796875 C 3.167969 28.78125 3.199219 28.765625 3.226562 28.75 C 3.257812 28.734375 3.289062 28.71875 3.320312 28.703125 C 3.347656 28.6875 3.378906 28.667969 3.40625 28.652344 C 3.4375 28.632812 3.464844 28.613281 3.492188 28.59375 C 3.519531 28.574219 3.546875 28.554688 3.574219 28.535156 C 3.601562 28.511719 3.628906 28.492188 3.65625 28.46875 C 3.679688 28.449219 3.707031 28.425781 3.730469 28.402344 C 3.757812 28.378906 3.78125 28.355469 3.804688 28.332031 C 3.828125 28.308594 3.851562 28.28125 3.875 28.257812 C 3.898438 28.230469 3.917969 28.207031 3.941406 28.179688 C 3.964844 28.152344 3.984375 28.125 4.003906 28.097656 C 4.023438 28.070312 4.042969 28.042969 4.0625 28.015625 C 4.082031 27.988281 4.101562 27.960938 4.117188 27.929688 C 4.136719 27.902344 4.152344 27.871094 4.167969 27.84375 C 4.183594 27.8125 4.199219 27.78125 4.214844 27.753906 C 4.230469 27.722656 4.242188 27.691406 4.257812 27.660156 C 4.269531 27.628906 4.28125 27.597656 4.292969 27.566406 C 4.304688 27.535156 4.316406 27.503906 4.328125 27.46875 C 4.339844 27.4375 4.347656 27.40625 4.355469 27.371094 C 4.367188 27.339844 4.375 27.308594 4.378906 27.273438 C 4.386719 27.242188 4.394531 27.207031 4.398438 27.175781 L 4.460938 26.816406 Z M 0 26.816406 "/>
<path style=" stroke:none;fill-rule:nonzero;fill:rgb(31.37255%,19.607843%,56.078434%);fill-opacity:1;" d="M 16.246094 12.898438 C 16.21875 12.898438 16.1875 12.898438 16.160156 12.902344 C 16.128906 12.902344 16.101562 12.90625 16.074219 12.910156 C 16.042969 12.914062 16.015625 12.921875 15.988281 12.925781 C 15.957031 12.933594 15.929688 12.941406 15.902344 12.949219 C 15.875 12.957031 15.847656 12.96875 15.820312 12.976562 C 15.792969 12.988281 15.765625 13 15.738281 13.011719 C 15.714844 13.023438 15.6875 13.039062 15.660156 13.050781 C 15.636719 13.066406 15.613281 13.082031 15.589844 13.097656 C 15.5625 13.113281 15.539062 13.132812 15.515625 13.148438 C 15.496094 13.167969 15.472656 13.183594 15.449219 13.203125 C 15.429688 13.222656 15.410156 13.246094 15.390625 13.265625 C 15.367188 13.285156 15.351562 13.308594 15.332031 13.332031 C 15.3125 13.351562 15.296875 13.375 15.28125 13.398438 C 15.261719 13.421875 15.246094 13.445312 15.234375 13.472656 C 15.21875 13.496094 15.203125 13.523438 15.191406 13.546875 C 15.179688 13.574219 15.167969 13.597656 15.15625 13.625 C 15.144531 13.652344 15.136719 13.679688 15.125 13.707031 C 15.117188 13.734375 15.109375 13.761719 15.101562 13.789062 C 15.097656 13.816406 15.089844 13.84375 15.085938 13.875 C 15.082031 13.902344 15.078125 13.929688 15.074219 13.957031 C 15.074219 13.988281 15.070312 14.015625 15.070312 14.042969 C 15.070312 14.074219 15.070312 14.101562 15.074219 14.128906 C 15.074219 14.160156 15.078125 14.1875 15.082031 14.214844 C 15.085938 14.246094 15.089844 14.273438 15.097656 14.300781 C 15.101562 14.328125 15.109375 14.355469 15.117188 14.382812 C 15.125 14.410156 15.136719 14.4375 15.144531 14.464844 C 15.15625 14.492188 15.167969 14.519531 15.179688 14.542969 C 15.191406 14.570312 15.207031 14.597656 15.21875 14.621094 C 15.234375 14.644531 15.25 14.671875 15.265625 14.695312 C 15.28125 14.71875 15.296875 14.742188 15.316406 14.765625 C 15.332031 14.789062 15.351562 14.808594 15.371094 14.832031 C 15.390625 14.851562 15.410156 14.871094 15.433594 14.890625 L 15.085938 16.75 L 17.40625 16.75 L 17.0625 14.890625 C 17.082031 14.871094 17.101562 14.851562 17.121094 14.832031 C 17.140625 14.808594 17.160156 14.789062 17.175781 14.765625 C 17.195312 14.742188 17.210938 14.71875 17.226562 14.695312 C 17.242188 14.671875 17.257812 14.644531 17.273438 14.621094 C 17.289062 14.597656 17.300781 14.570312 17.3125 14.542969 C 17.324219 14.519531 17.335938 14.492188 17.347656 14.464844 C 17.355469 14.4375 17.367188 14.410156 17.375 14.382812 C 17.382812 14.355469 17.390625 14.328125 17.394531 14.300781 C 17.402344 14.273438 17.40625 14.246094 17.410156 14.214844 C 17.414062 14.1875 17.417969 14.160156 17.421875 14.128906 C 17.421875 14.101562 17.421875 14.074219 17.421875 14.042969 C 17.421875 14.015625 17.421875 13.988281 17.417969 13.957031 C 17.414062 13.929688 17.414062 13.902344 17.40625 13.875 C 17.402344 13.84375 17.398438 13.816406 17.390625 13.789062 C 17.382812 13.761719 17.375 13.734375 17.367188 13.707031 C 17.359375 13.679688 17.347656 13.652344 17.335938 13.625 C 17.328125 13.597656 17.316406 13.574219 17.300781 13.546875 C 17.289062 13.523438 17.277344 13.496094 17.261719 13.472656 C 17.246094 13.445312 17.230469 13.421875 17.214844 13.398438 C 17.199219 13.375 17.179688 13.351562 17.160156 13.332031 C 17.144531 13.308594 17.125 13.285156 17.105469 13.265625 C 17.085938 13.246094 17.0625 13.222656 17.042969 13.203125 C 17.019531 13.183594 17 13.167969 16.976562 13.148438 C 16.953125 13.132812 16.929688 13.113281 16.90625 13.097656 C 16.882812 13.082031 16.855469 13.066406 16.832031 13.050781 C 16.804688 13.039062 16.78125 13.023438 16.753906 13.011719 C 16.726562 13 16.699219 12.988281 16.671875 12.976562 C 16.648438 12.96875 16.617188 12.957031 16.589844 12.949219 C 16.5625 12.941406 16.535156 12.933594 16.507812 12.925781 C 16.476562 12.921875 16.449219 12.914062 16.421875 12.910156 C 16.390625 12.90625 16.363281 12.902344 16.332031 12.902344 C 16.304688 12.898438 16.277344 12.898438 16.246094 12.898438 Z M 16.246094 12.898438 "/>
</g>
</svg>
