<svg xmlns="http://www.w3.org/2000/svg" xmlns:xlink="http://www.w3.org/1999/xlink" width="433"
    height="399" viewBox="0 0 433 399" fill="none">
    <g clip-path="url(#clip-path-suujbQVmwgq5nOGBtbgLX)">
        <g opacity="0.5">
            <path
                d="M356.227 40.1618L235.273 147.232C236.541 147.58 237.795 147.968 239.037 148.399C240.279 148.829 241.504 149.301 242.714 149.813C243.925 150.326 245.116 150.877 246.289 151.469C247.462 152.06 248.614 152.69 249.746 153.359C250.877 154.027 251.984 154.732 253.068 155.474C254.153 156.216 255.211 156.994 256.243 157.807C257.275 158.619 258.279 159.465 259.255 160.344C260.23 161.224 261.176 162.135 262.091 163.078C263.005 164.02 263.888 164.992 264.738 165.993C265.588 166.994 266.404 168.022 267.185 169.078C267.966 170.133 268.711 171.214 269.421 172.319C270.13 173.424 270.802 174.551 271.435 175.701C272.069 176.851 272.664 178.021 273.22 179.211C273.776 180.4 274.291 181.607 274.767 182.831C275.242 184.054 275.676 185.293 276.069 186.546C276.461 187.798 276.812 189.063 277.12 190.339L340.299 134.431L356.227 40.1618Z"
                fill="url(#linear_fill_owCc7cNbQglodEaRLFRDK)"></path>
        </g>
        <path
            d="M92.2095 353.93L199.405 259.088C198.173 258.631 196.958 258.134 195.759 257.595C194.56 257.058 193.381 256.48 192.221 255.863C191.061 255.246 189.923 254.591 188.807 253.898C187.691 253.205 186.599 252.476 185.532 251.709C184.464 250.944 183.424 250.143 182.411 249.307C181.397 248.472 180.412 247.603 179.457 246.702C178.502 245.801 177.577 244.869 176.684 243.905C175.791 242.942 174.932 241.951 174.105 240.93C173.278 239.909 172.487 238.862 171.731 237.789C170.974 236.716 170.255 235.618 169.572 234.496C168.889 233.375 168.245 232.232 167.638 231.067C167.032 229.903 166.465 228.719 165.938 227.517C165.411 226.314 164.925 225.095 164.48 223.86C164.035 222.625 163.631 221.377 163.269 220.115C162.907 218.853 162.588 217.58 162.312 216.297C162.036 215.014 161.802 213.723 161.612 212.424L10.1136 346.528C7.73136 348.691 5.72503 351.158 4.0946 353.93L92.2095 353.93Z"
            fill="url(#linear_fill_m5BO2b-5vxqeWDPRjFdhu)"></path>
        <path
            d="M4.05768e-05 368.94C-0.0120114 369.846 0.0177706 370.751 0.0893868 371.655C0.161003 372.559 0.274148 373.457 0.428823 374.35C0.583499 375.243 0.779047 376.128 1.01546 377.003C1.25188 377.878 1.52816 378.74 1.84431 379.59C2.16046 380.439 2.51512 381.273 2.90831 382.09C3.3015 382.906 3.73154 383.704 4.19845 384.481C4.66532 385.258 5.16702 386.012 5.70365 386.743C6.24025 387.474 6.80943 388.179 7.41121 388.857C7.73718 389.224 8.07195 389.583 8.41552 389.934C8.7591 390.284 9.11106 390.627 9.47147 390.96C9.83183 391.293 10.2002 391.617 10.5765 391.933C10.9528 392.248 11.3365 392.554 11.7279 392.851C12.1192 393.147 12.5175 393.434 12.9229 393.711C13.3283 393.988 13.7402 394.255 14.1587 394.512C14.5772 394.769 15.0017 395.015 15.4323 395.251C15.8629 395.487 16.2991 395.713 16.7407 395.927C17.1823 396.142 17.629 396.346 18.0806 396.538C18.5323 396.731 18.9884 396.913 19.449 397.084C19.9096 397.254 20.374 397.413 20.8424 397.561C21.3108 397.709 21.7825 397.845 22.2576 397.969C22.7326 398.094 23.2105 398.207 23.6911 398.309C24.1717 398.41 24.6545 398.499 25.1395 398.577C25.6245 398.654 26.1111 398.72 26.5994 398.774C27.0876 398.828 27.5768 398.869 28.0671 398.899C28.5574 398.929 29.0481 398.947 29.5393 398.953C30.0304 398.958 30.5214 398.952 31.0122 398.934C31.5031 398.916 31.9932 398.885 32.4826 398.843C32.9719 398.801 33.4599 398.747 33.9466 398.68C34.4333 398.614 34.9181 398.536 35.401 398.446C35.8838 398.356 36.3642 398.255 36.8421 398.141C37.3199 398.028 37.7947 397.903 38.2665 397.766C38.7382 397.629 39.2063 397.481 39.6708 397.322C40.1352 397.162 40.5955 396.991 41.0515 396.809C41.5077 396.627 41.9589 396.433 42.4056 396.229C42.8523 396.025 43.2937 395.81 43.7294 395.584C44.1654 395.358 44.5958 395.122 45.02 394.875C45.4446 394.628 45.8626 394.371 46.2745 394.103C46.6865 393.836 47.0914 393.559 47.4894 393.271C47.8878 392.984 48.2788 392.687 48.6621 392.381C49.0457 392.074 49.4216 391.759 49.7897 391.434L75.2169 368.94L4.05768e-05 368.94Z"
            fill="#50328F"></path>
        <path
            d="M385.994 317.286L432.549 43.9653C432.642 43.4778 432.721 42.9883 432.787 42.497C432.855 42.0057 432.911 41.513 432.955 41.019C432.996 40.525 433.025 40.0302 433.045 39.5347C433.064 39.0391 433.069 38.5434 433.061 38.0475C433.056 37.5517 433.037 37.0563 433.004 36.5613C432.974 36.0664 432.931 35.5726 432.877 35.0798C432.82 34.587 432.751 34.0959 432.672 33.6065C432.593 33.117 432.501 32.6299 432.398 32.145C432.291 31.6601 432.175 31.1782 432.05 30.6991C431.922 30.22 431.781 29.7443 431.628 29.2722C431.475 28.8 431.311 28.3319 431.137 27.8678C430.962 27.4037 430.776 26.9443 430.58 26.4895C430.38 26.0346 430.172 25.585 429.953 25.1405C429.732 24.696 429.5 24.2573 429.257 23.8243C429.017 23.3913 428.765 22.9645 428.5 22.544C428.238 22.1235 427.965 21.7098 427.681 21.3028C427.397 20.8959 427.104 20.4963 426.801 20.1039C426.498 19.7115 426.183 19.3268 425.859 18.95C425.537 18.5731 425.205 18.2045 424.864 17.8441C424.523 17.4836 424.173 17.1319 423.816 16.7888C423.458 16.4457 423.091 16.1118 422.714 15.7869C422.34 15.462 421.958 15.1466 421.568 14.8406C421.175 14.5347 420.776 14.2387 420.372 13.9525C419.965 13.6663 419.553 13.3903 419.135 13.1246C418.715 12.8589 418.289 12.6037 417.858 12.359C417.427 12.1143 416.989 11.8805 416.544 11.6575C416.101 11.4346 415.654 11.2228 415.201 11.022C414.745 10.8213 414.286 10.632 413.825 10.454C413.361 10.276 412.893 10.1097 412.42 9.95484C411.948 9.80003 411.473 9.657 410.996 9.52574C410.515 9.39452 410.033 9.27522 409.55 9.16785C409.065 9.06048 408.578 8.96517 408.088 8.88193C407.599 8.79872 407.108 8.72766 406.615 8.66877C406.122 8.6099 405.628 8.56328 405.133 8.5289C404.637 8.49452 404.141 8.47242 403.645 8.4626C403.148 8.45279 402.652 8.45528 402.156 8.47009C401.66 8.48489 401.164 8.51197 400.669 8.55131C400.174 8.59068 399.681 8.64228 399.188 8.70611C398.696 8.76994 398.205 8.84593 397.717 8.93407C397.228 9.0222 396.742 9.12238 396.259 9.23463C395.775 9.34686 395.295 9.47099 394.817 9.60705C394.34 9.7431 393.866 9.8909 393.396 10.0504C392.926 10.21 392.46 10.381 391.998 10.5637C391.537 10.7463 391.08 10.9403 390.628 11.1455C390.176 11.3508 389.729 11.5671 389.288 11.7945C388.847 12.0219 388.412 12.2601 387.982 12.5091C387.553 12.7581 387.13 13.0175 386.714 13.2875C386.297 13.5574 385.888 13.8375 385.485 14.1278C385.083 14.418 384.688 14.718 384.3 15.0279C383.912 15.3377 383.533 15.657 383.161 15.9856C382.789 16.3142 382.425 16.6519 382.07 16.9986C381.715 17.3452 381.369 17.7005 381.032 18.0643C380.695 18.4281 380.367 18.8001 380.048 19.1802C379.729 19.5603 379.42 19.948 379.12 20.3434C378.82 20.7388 378.531 21.1414 378.251 21.5512C377.971 21.961 377.702 22.3774 377.443 22.8006C377.184 23.2237 376.936 23.653 376.698 24.0884C376.461 24.5238 376.234 24.9648 376.018 25.4115C375.802 25.8582 375.598 26.3099 375.405 26.7667C375.212 27.2235 375.03 27.6847 374.859 28.1506C374.689 28.6164 374.531 29.0861 374.384 29.5598C374.237 30.0335 374.102 30.5105 373.978 30.9909C373.855 31.4712 373.744 31.9544 373.645 32.4402C373.545 32.9261 373.458 33.4142 373.383 33.9044L329.162 293.565L276.792 218.681C276.59 219.462 276.372 220.239 276.138 221.012C275.904 221.785 275.654 222.552 275.388 223.314C275.122 224.076 274.841 224.833 274.544 225.583C274.247 226.334 273.935 227.078 273.607 227.816C273.28 228.554 272.937 229.284 272.579 230.008C272.222 230.732 271.849 231.448 271.462 232.156C271.075 232.865 270.673 233.565 270.257 234.257C269.841 234.949 269.411 235.632 268.967 236.306C268.523 236.981 268.065 237.646 267.593 238.301C267.122 238.956 266.637 239.602 266.139 240.237C265.641 240.873 265.13 241.498 264.606 242.112C264.082 242.727 263.546 243.33 262.997 243.923C262.448 244.515 261.888 245.096 261.315 245.666C260.742 246.235 260.158 246.792 259.562 247.338C258.967 247.884 258.361 248.416 257.743 248.937C257.125 249.457 256.497 249.965 255.859 250.459C255.221 250.954 254.572 251.436 253.914 251.903C253.255 252.372 252.587 252.826 251.91 253.267C251.234 253.707 250.548 254.134 249.853 254.546C249.159 254.958 248.456 255.356 247.745 255.74C247.034 256.124 246.315 256.493 245.589 256.846C244.863 257.201 244.13 257.54 243.39 257.863C242.649 258.187 241.903 258.496 241.15 258.789C240.397 259.082 239.639 259.36 238.874 259.622C238.11 259.884 237.341 260.13 236.567 260.36C235.792 260.591 235.013 260.806 234.23 261.004C233.447 261.202 232.66 261.384 231.869 261.55C231.078 261.716 230.284 261.867 229.487 262C228.69 262.133 227.891 262.25 227.089 262.351C226.288 262.451 225.484 262.536 224.679 262.603C223.874 262.671 223.067 262.722 222.26 262.756C221.453 262.79 220.645 262.808 219.837 262.81C217.708 262.81 215.742 262.81 213.531 262.482L251.897 317.286L385.994 317.286Z"
            fill="url(#linear_fill_eJS_LVYtxzWQjZKsaOaXT)"></path>
        <path
            d="M288.011 368.94L295.259 379.328C295.719 380.079 296.204 380.813 296.712 381.533C297.219 382.252 297.75 382.954 298.302 383.639C298.855 384.325 299.429 384.992 300.025 385.64C300.62 386.289 301.236 386.918 301.872 387.527C302.508 388.136 303.162 388.724 303.836 389.292C304.51 389.859 305.201 390.404 305.909 390.927C306.618 391.451 307.342 391.95 308.083 392.427C308.824 392.904 309.579 393.356 310.349 393.785C311.118 394.213 311.901 394.617 312.696 394.995C313.492 395.374 314.299 395.726 315.117 396.053C315.935 396.38 316.762 396.68 317.6 396.954C318.437 397.228 319.282 397.474 320.135 397.694C320.989 397.914 321.848 398.106 322.714 398.271C323.579 398.436 324.449 398.573 325.323 398.682C326.197 398.791 327.074 398.872 327.954 398.925C328.833 398.978 329.714 399.003 330.595 399C333.462 398.998 336.301 398.712 339.112 398.141C340.087 397.924 341.056 397.679 342.018 397.405C342.98 397.132 343.933 396.831 344.877 396.502C345.821 396.174 346.755 395.818 347.678 395.435C348.602 395.052 349.513 394.643 350.413 394.207C351.313 393.771 352.199 393.309 353.072 392.822C353.945 392.335 354.803 391.823 355.646 391.286C356.489 390.749 357.316 390.188 358.126 389.603C358.936 389.018 359.729 388.41 360.504 387.779C361.279 387.148 362.035 386.495 362.772 385.82C363.509 385.145 364.226 384.45 364.923 383.733C365.619 383.017 366.295 382.281 366.948 381.525C367.602 380.769 368.234 379.995 368.843 379.203C369.451 378.411 370.037 377.601 370.598 376.775C371.16 375.949 371.697 375.107 372.21 374.25C372.723 373.392 373.21 372.521 373.672 371.635C374.134 370.749 374.57 369.851 374.98 368.94L288.011 368.94Z"
            fill="#50328F"></path>
        <path d="M379.771 353.971L383.456 332.296L262.38 332.296L277.529 353.971L379.771 353.971Z"
            fill="#50328F"></path>
        <path
            d="M62.8515 353.93L103.797 105.557L162.718 189.766C162.915 188.977 163.128 188.193 163.356 187.412C163.586 186.632 163.831 185.857 164.093 185.087C164.354 184.318 164.631 183.553 164.924 182.795C165.217 182.036 165.526 181.284 165.85 180.538C166.174 179.793 166.514 179.054 166.869 178.322C167.224 177.591 167.594 176.866 167.978 176.15C168.363 175.434 168.763 174.726 169.177 174.026C169.592 173.326 170.02 172.635 170.463 171.953C170.906 171.271 171.363 170.598 171.833 169.935C172.304 169.272 172.789 168.619 173.287 167.975C173.785 167.332 174.296 166.7 174.82 166.077C175.344 165.455 175.881 164.844 176.43 164.245C176.979 163.645 177.541 163.056 178.115 162.48C178.689 161.903 179.274 161.339 179.871 160.786C180.469 160.234 181.077 159.694 181.697 159.167C182.316 158.639 182.947 158.125 183.588 157.624C184.229 157.123 184.88 156.635 185.541 156.161C186.202 155.687 186.873 155.227 187.553 154.78C188.233 154.334 188.923 153.901 189.621 153.483C190.319 153.065 191.025 152.662 191.74 152.273C192.455 151.885 193.178 151.511 193.908 151.152C194.639 150.793 195.376 150.45 196.121 150.121C196.866 149.793 197.617 149.48 198.374 149.183C199.132 148.886 199.896 148.604 200.665 148.339C201.434 148.073 202.209 147.824 202.988 147.59C203.768 147.356 204.552 147.139 205.34 146.937C206.129 146.736 206.922 146.551 207.718 146.383C208.515 146.215 209.314 146.063 210.116 145.927C210.919 145.792 211.724 145.673 212.532 145.571C213.339 145.469 214.149 145.384 214.96 145.315C215.771 145.247 216.583 145.195 217.396 145.16C218.209 145.125 219.023 145.107 219.837 145.106C221.761 145.106 223.686 145.106 225.569 145.392L137.618 19.6719C137.064 18.7704 136.475 17.8915 135.853 17.0351C135.231 16.1787 134.577 15.3474 133.891 14.5411C133.205 13.7349 132.489 12.9561 131.744 12.2047C130.998 11.4534 130.224 10.7317 129.423 10.0397C128.622 9.34769 127.795 8.68735 126.943 8.05867C126.091 7.43007 125.216 6.83496 124.318 6.2734C123.42 5.71187 122.502 5.18551 121.564 4.69433C120.626 4.20319 119.67 3.74864 118.697 3.33076C117.723 2.91287 116.736 2.53286 115.734 2.19072C114.731 1.84858 113.717 1.54531 112.692 1.28092C111.666 1.01653 110.631 0.791796 109.588 0.606713C108.546 0.421633 107.497 0.276753 106.443 0.172071C105.389 0.0673887 104.333 0.00321389 103.273 -0.0204538C102.214 -0.0441215 101.156 -0.0272124 100.098 0.0302735C99.0408 0.0877599 97.9865 0.185654 96.9362 0.323955C95.886 0.462257 94.8427 0.64056 93.8063 0.85886C73.3335 4.94863 56.9553 22.5756 53.1474 44.9875L2.00635 353.93L62.8515 353.93Z"
            fill="#50328F"></path>
        <path
            d="M4.89337e-06 368.94C-0.000260612 369.404 0.0102782 369.868 0.0316215 370.332C0.0529647 370.796 0.0850894 371.259 0.127995 371.721C0.170901 372.183 0.224541 372.644 0.288917 373.104C0.353292 373.564 0.428332 374.022 0.514039 374.478C0.599746 374.934 0.696022 375.388 0.802873 375.84C0.909725 376.292 1.02703 376.741 1.1548 377.187C1.28257 377.634 1.42065 378.077 1.56905 378.516C1.71745 378.956 1.87602 379.393 2.04474 379.825C2.21346 380.258 2.39215 380.686 2.58082 381.111C2.76949 381.535 2.96794 381.954 3.17615 382.369C3.38437 382.784 3.60213 383.194 3.82944 383.599C4.05674 384.004 4.29335 384.404 4.53927 384.797C4.78515 385.191 5.04011 385.579 5.30409 385.961C5.56807 386.343 5.84081 386.719 6.12231 387.089C6.40377 387.458 6.6937 387.821 6.99207 388.176C7.29044 388.533 7.59692 388.881 7.91155 389.223C8.22613 389.565 8.54854 389.899 8.87872 390.225C9.20891 390.552 9.5465 390.871 9.89155 391.182C10.2366 391.493 10.5886 391.796 10.9478 392.091C11.3069 392.385 11.6727 392.671 12.0452 392.949C12.4176 393.227 12.7964 393.496 13.1813 393.756C13.5663 394.016 13.9572 394.267 14.3538 394.509C14.7505 394.751 15.1526 394.983 15.5601 395.206C15.9676 395.429 16.3801 395.643 16.7975 395.847C17.215 396.051 17.6369 396.245 18.0634 396.43C18.4899 396.614 18.9205 396.789 19.3551 396.953C19.7897 397.118 20.2279 397.272 20.6697 397.416C21.1115 397.56 21.5565 397.694 22.0045 397.817C22.4525 397.941 22.9032 398.054 23.3565 398.156C23.8098 398.258 24.2653 398.35 24.7228 398.432C25.1804 398.513 25.6396 398.584 26.1005 398.643C26.5613 398.703 27.0233 398.753 27.4865 398.792C27.9497 398.83 28.4135 398.858 28.8779 398.875C29.3424 398.891 29.8069 398.898 30.2717 398.893C30.7365 398.888 31.2008 398.873 31.6648 398.847C32.1288 398.821 32.592 398.784 33.0543 398.736C33.5166 398.688 33.9775 398.63 34.4371 398.56C34.8966 398.491 35.3544 398.411 35.8102 398.321C36.2661 398.231 36.7196 398.13 37.1708 398.018C37.6219 397.907 38.0702 397.785 38.5157 397.652C38.9612 397.52 39.4033 397.378 39.8422 397.225C40.281 397.072 40.7161 396.909 41.1474 396.736C41.5786 396.563 42.0053 396.38 42.4282 396.187C42.8512 395.994 43.2692 395.791 43.6824 395.579C44.0955 395.367 44.5037 395.145 44.9067 394.913C45.3096 394.682 45.7067 394.441 46.0986 394.192C46.4904 393.942 46.8761 393.683 47.2557 393.415C47.6353 393.148 48.0087 392.871 48.3756 392.586C48.7424 392.301 49.1023 392.008 49.4557 391.706C49.8091 391.405 50.1551 391.095 50.4937 390.777C50.8323 390.459 51.1631 390.133 51.487 389.8C51.8105 389.467 52.1262 389.126 52.4341 388.778C52.7416 388.431 53.0413 388.076 53.3324 387.714C53.6236 387.352 53.9061 386.984 54.18 386.609C54.4539 386.234 54.7193 385.853 54.9756 385.466C55.2319 385.078 55.4792 384.685 55.7171 384.287C55.955 383.888 56.1835 383.484 56.4025 383.074C56.6216 382.665 56.8312 382.251 57.0311 381.832C57.2313 381.413 57.4213 380.989 57.601 380.561C57.7812 380.133 57.9515 379.701 58.1116 379.266C58.2717 378.83 58.4212 378.39 58.5608 377.947C58.7004 377.505 58.8298 377.059 58.9485 376.61C59.0673 376.161 59.1754 375.71 59.2732 375.256C59.3711 374.802 59.4583 374.347 59.5349 373.889L60.3538 368.94L4.89337e-06 368.94Z"
            fill="#50328F"></path>
        <path
            d="M219.837 177.456C219.442 177.457 219.048 177.473 218.655 177.504C218.261 177.535 217.869 177.58 217.479 177.64C217.089 177.699 216.702 177.773 216.317 177.862C215.932 177.95 215.551 178.052 215.175 178.169C214.798 178.286 214.425 178.416 214.058 178.56C213.691 178.704 213.329 178.862 212.973 179.033C212.618 179.204 212.269 179.387 211.927 179.584C211.585 179.781 211.25 179.99 210.924 180.211C210.597 180.433 210.28 180.666 209.971 180.911C209.661 181.156 209.362 181.412 209.072 181.68C208.781 181.947 208.501 182.224 208.232 182.512C207.962 182.8 207.704 183.098 207.456 183.405C207.209 183.712 206.973 184.028 206.749 184.352C206.525 184.677 206.313 185.009 206.114 185.35C205.915 185.69 205.728 186.037 205.555 186.391C205.381 186.745 205.221 187.105 205.074 187.471C204.927 187.837 204.794 188.208 204.674 188.584C204.555 188.959 204.45 189.339 204.359 189.723C204.268 190.106 204.191 190.492 204.129 190.882C204.066 191.271 204.018 191.662 203.985 192.055C203.951 192.448 203.932 192.841 203.928 193.235C203.924 193.629 203.934 194.023 203.959 194.417C203.984 194.81 204.024 195.202 204.078 195.593C204.132 195.983 204.2 196.371 204.283 196.757C204.366 197.142 204.463 197.524 204.575 197.902C204.686 198.28 204.811 198.654 204.95 199.023C205.089 199.392 205.241 199.755 205.407 200.113C205.573 200.471 205.752 200.822 205.945 201.166C206.136 201.51 206.341 201.847 206.558 202.177C206.775 202.506 207.004 202.827 207.245 203.139C207.486 203.451 207.738 203.754 208.001 204.048C208.264 204.341 208.538 204.625 208.823 204.898L204.155 230.46L235.519 230.46L230.851 204.898C231.136 204.625 231.41 204.341 231.673 204.048C231.936 203.754 232.188 203.451 232.429 203.139C232.67 202.827 232.899 202.506 233.116 202.177C233.333 201.847 233.538 201.51 233.729 201.166C233.922 200.822 234.101 200.471 234.267 200.113C234.433 199.755 234.585 199.392 234.724 199.023C234.863 198.654 234.988 198.28 235.099 197.902C235.211 197.524 235.308 197.142 235.391 196.757C235.474 196.371 235.542 195.983 235.596 195.593C235.65 195.202 235.69 194.81 235.715 194.417C235.74 194.023 235.75 193.629 235.746 193.235C235.742 192.841 235.723 192.448 235.689 192.055C235.656 191.662 235.608 191.271 235.546 190.882C235.483 190.492 235.406 190.106 235.315 189.723C235.224 189.339 235.119 188.959 235 188.584C234.88 188.208 234.747 187.837 234.6 187.471C234.453 187.105 234.293 186.745 234.12 186.391C233.946 186.037 233.759 185.69 233.56 185.35C233.361 185.009 233.149 184.677 232.925 184.352C232.701 184.028 232.465 183.712 232.218 183.405C231.97 183.098 231.712 182.8 231.442 182.512C231.173 182.224 230.893 181.947 230.602 181.68C230.312 181.412 230.013 181.156 229.704 180.911C229.394 180.666 229.077 180.433 228.75 180.211C228.424 179.99 228.089 179.781 227.747 179.584C227.405 179.387 227.056 179.204 226.701 179.033C226.345 178.862 225.983 178.704 225.616 178.56C225.249 178.416 224.876 178.286 224.499 178.169C224.123 178.052 223.742 177.95 223.357 177.862C222.972 177.773 222.585 177.699 222.195 177.64C221.805 177.58 221.413 177.535 221.019 177.504C220.626 177.473 220.232 177.457 219.837 177.456Z"
            fill="#50328F"></path>
    </g>
    <defs>
        <clipPath id="clip-path-suujbQVmwgq5nOGBtbgLX">
            <path d="M0 399L433 399L433 0L0 0L0 399Z" fill="white" />
        </clipPath>
        <linearGradient id="linear_fill_owCc7cNbQglodEaRLFRDK" x1="235.2734375"
            y1="115.25028991699219" x2="356.30859375" y2="115.25028991699219"
            gradientUnits="userSpaceOnUse">
            <stop offset="0" stop-color="#50328F" />
            <stop offset="0.42" stop-color="#50328F" stop-opacity="0.99" />
            <stop offset="0.58" stop-color="#50328F" stop-opacity="0.94" />
            <stop offset="0.65" stop-color="#50328F" stop-opacity="0.89" />
            <stop offset="1" stop-color="#50328F" stop-opacity="0.5" />
        </linearGradient>
        <linearGradient id="linear_fill_m5BO2b-5vxqeWDPRjFdhu" x1="29.43994140625"
            y1="369.7170715332031" x2="152.19482421875" y2="260.64239501953125"
            gradientUnits="userSpaceOnUse">
            <stop offset="0" stop-color="#50328F" />
            <stop offset="0.42" stop-color="#50328F" stop-opacity="0.99" />
            <stop offset="0.58" stop-color="#50328F" stop-opacity="0.94" />
            <stop offset="0.65" stop-color="#50328F" stop-opacity="0.89" />
            <stop offset="1" stop-color="#50328F" stop-opacity="0.5" />
        </linearGradient>
        <linearGradient id="linear_fill_eJS_LVYtxzWQjZKsaOaXT" x1="312.66064453125"
            y1="216.06350708007812" x2="342.2642822265625" y2="37.01258850097656"
            gradientUnits="userSpaceOnUse">
            <stop offset="0" stop-color="#50328F" />
            <stop offset="0.5" stop-color="#50328F" stop-opacity="0.5" />
        </linearGradient>
    </defs>
</svg>