<svg xmlns="http://www.w3.org/2000/svg" xmlns:xlink="http://www.w3.org/1999/xlink" width="58.611328125" height="58.5699462890625" viewBox="0 0 58.611328125 58.5699462890625" fill="none"><path d="M56.2719 9.75L55.0119 8.49C53.8784 7.35645 52.2988 5.87489 51.492 5.19C50.9861 4.76183 50.6966 4.54259 50.492 4.43C49.1536 3.37236 46.8823 2.20864 45.2719 1.76C45.1969 1.73953 43.4038 1.25 40.4219 1.25C35.1466 1.25 24.6754 2.8666 13.832 13.71C-2.17349 29.7146 1.58307 44.6615 1.75195 45.29C2.18098 46.9012 3.31728 49.3205 4.28195 50.68C4.31522 50.7269 4.39239 50.8404 5.06195 51.51L9.79195 56.24C9.83489 56.2829 9.87687 56.3289 9.92195 56.37C9.96704 56.4108 10.0149 56.4415 10.062 56.48C10.109 56.5189 10.153 56.5637 10.202 56.6C10.2508 56.6362 10.3013 56.666 10.352 56.7C10.4025 56.7336 10.4497 56.7686 10.502 56.8C10.5542 56.8313 10.6083 56.8613 10.662 56.89C10.7156 56.9187 10.7769 56.9443 10.832 56.97C10.887 56.9961 10.9357 57.0265 10.992 57.05C11.0482 57.073 11.1046 57.0896 11.162 57.11C11.2193 57.1304 11.2836 57.1522 11.342 57.17C11.4002 57.1873 11.4528 57.2053 11.512 57.22C11.571 57.2347 11.6322 57.2483 11.692 57.26C11.7517 57.2717 11.8117 57.29 11.872 57.29C11.9322 57.29 11.9913 57.31 12.052 57.31C12.1125 57.31 12.1711 57.32 12.232 57.32C12.2927 57.32 12.3611 57.32 12.422 57.32C12.4828 57.32 12.5411 57.32 12.602 57.32C12.6627 57.32 12.7213 57.31 12.782 57.31C12.8426 57.31 12.9017 57.29 12.962 57.29C13.0222 57.29 13.0822 57.2717 13.142 57.26C13.2017 57.2483 13.2629 57.2343 13.322 57.22C13.381 57.2053 13.4436 57.1877 13.502 57.17C13.5602 57.1526 13.6146 57.1304 13.672 57.11C13.7293 57.0896 13.7857 57.0734 13.842 57.05C13.8982 57.0269 13.9569 56.9961 14.012 56.97C14.067 56.9439 14.1183 56.9187 14.172 56.89C14.2256 56.8613 14.2797 56.8313 14.332 56.8C14.3842 56.7686 14.4313 56.7336 14.482 56.7C14.5325 56.666 14.583 56.6362 14.632 56.6C14.6808 56.5637 14.7349 56.5186 14.782 56.48C14.829 56.4411 14.8769 56.4108 14.922 56.37C14.967 56.3289 15.0089 56.2829 15.052 56.24L23.162 48.13C23.8622 47.4297 24.242 46.4963 24.242 45.5C24.242 44.5037 23.8622 43.5702 23.162 42.87L19.252 38.96C18.3095 38.0174 17.503 36.0223 17.532 34.69C17.532 34.62 17.7719 27.6701 22.922 22.52C27.6148 17.8272 33.8014 17.06 33.8619 17.06C35.207 16.9073 37.1185 17.6165 38.0319 18.53L42.7619 23.26C43.4622 23.9602 44.3958 24.35 45.3919 24.35C46.3882 24.35 47.3225 23.9602 48.0219 23.26L56.2719 15.01C57.7221 13.5599 57.7229 11.2 56.2719 9.75ZM55.0719 13.81L46.8219 22.06C46.0654 22.8157 44.7285 22.8183 43.972 22.06L39.242 17.32C37.9668 16.044 35.4963 15.1662 33.6719 15.37C33.3955 15.4015 26.8407 16.1813 21.712 21.31C16.0638 26.9583 15.832 34.3387 15.832 34.65C15.7928 36.4616 16.7609 38.889 18.042 40.17L21.952 44.07C21.9752 44.0934 21.9998 44.1255 22.022 44.15C22.044 44.1744 22.0611 44.1945 22.082 44.22C22.1029 44.2455 22.1224 44.2735 22.142 44.3C22.1615 44.3264 22.1836 44.3525 22.202 44.38C22.2202 44.4074 22.235 44.4317 22.252 44.46C22.2689 44.4883 22.2864 44.5209 22.302 44.55C22.3175 44.5791 22.3379 44.6102 22.352 44.64C22.366 44.6698 22.3793 44.6995 22.392 44.73C22.4045 44.7604 22.4109 44.789 22.422 44.82C22.4331 44.8511 22.452 44.8784 22.452 44.91C22.452 44.9415 22.482 44.978 22.482 45.01C22.482 45.0419 22.502 45.0777 22.502 45.11C22.502 45.1424 22.522 45.1674 22.522 45.2C22.522 45.2326 22.532 45.2671 22.532 45.3C22.532 45.3328 22.542 45.367 22.542 45.4C22.542 45.4328 22.542 45.4671 22.542 45.5C22.542 45.533 22.542 45.5671 22.542 45.6C22.542 45.633 22.532 45.6673 22.532 45.7C22.532 45.7328 22.522 45.7574 22.522 45.79C22.522 45.8226 22.502 45.8577 22.502 45.89C22.502 45.9223 22.482 45.958 22.482 45.99C22.482 46.0219 22.452 46.0484 22.452 46.08C22.452 46.1115 22.4331 46.149 22.422 46.18C22.4109 46.211 22.4045 46.2395 22.392 46.27C22.3793 46.3004 22.366 46.3302 22.352 46.36C22.3379 46.3898 22.3175 46.4209 22.302 46.45C22.2864 46.4791 22.2689 46.5017 22.252 46.53C22.235 46.5583 22.2202 46.5926 22.202 46.62C22.1836 46.6474 22.1615 46.6735 22.142 46.7C22.1224 46.7265 22.1029 46.7545 22.082 46.78C22.0611 46.8054 22.044 46.8256 22.022 46.85C21.9998 46.8745 21.9752 46.8967 21.952 46.92L13.842 55.03C13.0846 55.7856 11.7485 55.7865 10.992 55.03L6.26195 50.3C5.8039 49.842 5.66195 49.69 5.66195 49.69C4.81244 48.4908 3.78066 46.281 3.40195 44.86C3.36357 44.715 -0.229953 30.1919 15.042 14.92C25.4521 4.51156 35.411 2.96 40.4219 2.96C43.1489 2.96 44.7983 3.4 44.812 3.4C46.2167 3.7915 48.3593 4.90222 49.492 5.82L49.702 5.98L49.7619 5.99C49.8626 6.0625 50.051 6.2094 50.382 6.49C51.1598 7.14932 52.6949 8.58455 53.8019 9.69L55.0719 10.96C55.8583 11.7464 55.8575 13.0245 55.0719 13.81Z" stroke="rgba(80, 50, 143, 1)" stroke-width="2.5"      fill="#50328F" ></path></svg>